<mxfile host="app.diagrams.net" agent="Mozilla/5.0 (Windows NT 10.0; Win64; x64) AppleWebKit/537.36 (KHTML, like Gecko) Chrome/138.0.0.0 Safari/537.36" version="28.0.6">
  <diagram name="Page-1" id="7RCDCCw6cNkcE698NHnI">
    <mxGraphModel grid="1" page="1" gridSize="10" guides="1" tooltips="1" connect="1" arrows="1" fold="1" pageScale="1" pageWidth="827" pageHeight="1169" math="0" shadow="0">
      <root>
        <mxCell id="0" />
        <mxCell id="1" parent="0" />
        <mxCell id="7Cxw7odDGHsC5qwyH94--1" value="ทบทวนสัญลักษณ์" style="swimlane;fontFamily=Sarabun;fontSource=https%3A%2F%2Ffonts.googleapis.com%2Fcss%3Ffamily%3DSarabun;" vertex="1" parent="1">
          <mxGeometry x="90" y="170" width="640" height="290" as="geometry" />
        </mxCell>
        <mxCell id="7Cxw7odDGHsC5qwyH94--2" value="&lt;font data-font-src=&quot;https://fonts.googleapis.com/css?family=Sarabun&quot; face=&quot;Sarabun&quot;&gt;เริ่มต้น&lt;/font&gt;" style="ellipse;whiteSpace=wrap;html=1;" vertex="1" parent="7Cxw7odDGHsC5qwyH94--1">
          <mxGeometry x="20" y="40" width="130" height="30" as="geometry" />
        </mxCell>
        <mxCell id="7Cxw7odDGHsC5qwyH94--3" value="" style="endArrow=classic;html=1;rounded=0;" edge="1" parent="7Cxw7odDGHsC5qwyH94--1">
          <mxGeometry width="50" height="50" relative="1" as="geometry">
            <mxPoint x="84.5" y="70" as="sourcePoint" />
            <mxPoint x="84.5" y="120" as="targetPoint" />
          </mxGeometry>
        </mxCell>
        <mxCell id="7Cxw7odDGHsC5qwyH94--4" value="&lt;font face=&quot;Sarabun&quot;&gt;สิ้นสุด&lt;/font&gt;" style="ellipse;whiteSpace=wrap;html=1;" vertex="1" parent="7Cxw7odDGHsC5qwyH94--1">
          <mxGeometry x="150" y="90" width="130" height="30" as="geometry" />
        </mxCell>
        <mxCell id="7Cxw7odDGHsC5qwyH94--5" value="" style="endArrow=classic;html=1;rounded=0;" edge="1" parent="7Cxw7odDGHsC5qwyH94--1">
          <mxGeometry width="50" height="50" relative="1" as="geometry">
            <mxPoint x="214.5" y="40" as="sourcePoint" />
            <mxPoint x="214.5" y="90" as="targetPoint" />
          </mxGeometry>
        </mxCell>
        <mxCell id="7Cxw7odDGHsC5qwyH94--6" value="กระบวนการ" style="rounded=0;whiteSpace=wrap;html=1;fontFamily=Sarabun;fontSource=https%3A%2F%2Ffonts.googleapis.com%2Fcss%3Ffamily%3DSarabun;" vertex="1" parent="7Cxw7odDGHsC5qwyH94--1">
          <mxGeometry x="320" y="70" width="120" height="30" as="geometry" />
        </mxCell>
        <mxCell id="7Cxw7odDGHsC5qwyH94--7" value="" style="endArrow=classic;html=1;rounded=0;" edge="1" parent="7Cxw7odDGHsC5qwyH94--1">
          <mxGeometry width="50" height="50" relative="1" as="geometry">
            <mxPoint x="379" y="40" as="sourcePoint" />
            <mxPoint x="379.5" y="70" as="targetPoint" />
          </mxGeometry>
        </mxCell>
        <mxCell id="7Cxw7odDGHsC5qwyH94--8" value="" style="endArrow=classic;html=1;rounded=0;" edge="1" parent="7Cxw7odDGHsC5qwyH94--1">
          <mxGeometry width="50" height="50" relative="1" as="geometry">
            <mxPoint x="379.75" y="100" as="sourcePoint" />
            <mxPoint x="380.25" y="130" as="targetPoint" />
          </mxGeometry>
        </mxCell>
        <mxCell id="7Cxw7odDGHsC5qwyH94--9" value="ประโยคเงื่อนไข" style="rhombus;whiteSpace=wrap;html=1;fontFamily=Sarabun;fontSource=https%3A%2F%2Ffonts.googleapis.com%2Fcss%3Ffamily%3DSarabun;" vertex="1" parent="7Cxw7odDGHsC5qwyH94--1">
          <mxGeometry x="490" y="60" width="100" height="60" as="geometry" />
        </mxCell>
        <mxCell id="7Cxw7odDGHsC5qwyH94--10" value="" style="endArrow=classic;html=1;rounded=0;" edge="1" parent="7Cxw7odDGHsC5qwyH94--1">
          <mxGeometry width="50" height="50" relative="1" as="geometry">
            <mxPoint x="539.71" y="30" as="sourcePoint" />
            <mxPoint x="540.21" y="60" as="targetPoint" />
          </mxGeometry>
        </mxCell>
        <mxCell id="7Cxw7odDGHsC5qwyH94--11" value="" style="endArrow=classic;html=1;rounded=0;" edge="1" parent="7Cxw7odDGHsC5qwyH94--1">
          <mxGeometry width="50" height="50" relative="1" as="geometry">
            <mxPoint x="539.71" y="120" as="sourcePoint" />
            <mxPoint x="540" y="175" as="targetPoint" />
          </mxGeometry>
        </mxCell>
        <mxCell id="7Cxw7odDGHsC5qwyH94--12" value="จริง" style="edgeLabel;html=1;align=center;verticalAlign=middle;resizable=0;points=[];fontFamily=Sarabun;fontSource=https%3A%2F%2Ffonts.googleapis.com%2Fcss%3Ffamily%3DSarabun;" connectable="0" vertex="1" parent="7Cxw7odDGHsC5qwyH94--11">
          <mxGeometry x="-0.4142" y="-1" relative="1" as="geometry">
            <mxPoint as="offset" />
          </mxGeometry>
        </mxCell>
        <mxCell id="7Cxw7odDGHsC5qwyH94--13" value="" style="endArrow=classic;html=1;rounded=0;exitX=1;exitY=0.5;exitDx=0;exitDy=0;" edge="1" parent="7Cxw7odDGHsC5qwyH94--1" source="7Cxw7odDGHsC5qwyH94--9">
          <mxGeometry width="50" height="50" relative="1" as="geometry">
            <mxPoint x="620" y="95" as="sourcePoint" />
            <mxPoint x="610" y="175" as="targetPoint" />
            <Array as="points">
              <mxPoint x="610" y="90" />
            </Array>
          </mxGeometry>
        </mxCell>
        <mxCell id="7Cxw7odDGHsC5qwyH94--14" value="&lt;font data-font-src=&quot;https://fonts.googleapis.com/css?family=Sarabun&quot; face=&quot;Sarabun&quot;&gt;เท็จ&lt;/font&gt;" style="edgeLabel;html=1;align=center;verticalAlign=middle;resizable=0;points=[];" connectable="0" vertex="1" parent="7Cxw7odDGHsC5qwyH94--13">
          <mxGeometry x="-0.0019" y="-2" relative="1" as="geometry">
            <mxPoint as="offset" />
          </mxGeometry>
        </mxCell>
        <mxCell id="7Cxw7odDGHsC5qwyH94--15" value="&lt;font data-font-src=&quot;https://fonts.googleapis.com/css?family=Sarabun&quot; face=&quot;Sarabun&quot;&gt;ฟังก์ชัน/โมดูล&lt;/font&gt;" style="shape=process;whiteSpace=wrap;html=1;backgroundOutline=1;" vertex="1" parent="7Cxw7odDGHsC5qwyH94--1">
          <mxGeometry x="25" y="180" width="120" height="30" as="geometry" />
        </mxCell>
        <mxCell id="7Cxw7odDGHsC5qwyH94--16" value="" style="endArrow=classic;html=1;rounded=0;" edge="1" parent="7Cxw7odDGHsC5qwyH94--1">
          <mxGeometry width="50" height="50" relative="1" as="geometry">
            <mxPoint x="84.70999999999998" y="150" as="sourcePoint" />
            <mxPoint x="85.20999999999998" y="180" as="targetPoint" />
          </mxGeometry>
        </mxCell>
        <mxCell id="7Cxw7odDGHsC5qwyH94--17" value="" style="endArrow=classic;html=1;rounded=0;" edge="1" parent="7Cxw7odDGHsC5qwyH94--1">
          <mxGeometry width="50" height="50" relative="1" as="geometry">
            <mxPoint x="84.70999999999998" y="210" as="sourcePoint" />
            <mxPoint x="85.20999999999998" y="240" as="targetPoint" />
          </mxGeometry>
        </mxCell>
        <mxCell id="7Cxw7odDGHsC5qwyH94--18" value="" style="strokeWidth=2;html=1;shape=mxgraph.flowchart.start_2;whiteSpace=wrap;" vertex="1" parent="7Cxw7odDGHsC5qwyH94--1">
          <mxGeometry x="205" y="185" width="20" height="20" as="geometry" />
        </mxCell>
        <mxCell id="7Cxw7odDGHsC5qwyH94--19" value="" style="endArrow=classic;html=1;rounded=0;" edge="1" parent="7Cxw7odDGHsC5qwyH94--1">
          <mxGeometry width="50" height="50" relative="1" as="geometry">
            <mxPoint x="214.70999999999998" y="155" as="sourcePoint" />
            <mxPoint x="215.20999999999998" y="185" as="targetPoint" />
          </mxGeometry>
        </mxCell>
        <mxCell id="7Cxw7odDGHsC5qwyH94--20" value="" style="endArrow=classic;html=1;rounded=0;entryX=0;entryY=0.5;entryDx=0;entryDy=0;entryPerimeter=0;" edge="1" parent="7Cxw7odDGHsC5qwyH94--1" target="7Cxw7odDGHsC5qwyH94--18">
          <mxGeometry width="50" height="50" relative="1" as="geometry">
            <mxPoint x="189.99999999999997" y="155" as="sourcePoint" />
            <mxPoint x="190.49999999999997" y="185" as="targetPoint" />
            <Array as="points">
              <mxPoint x="190" y="180" />
            </Array>
          </mxGeometry>
        </mxCell>
        <mxCell id="7Cxw7odDGHsC5qwyH94--21" value="" style="endArrow=classic;html=1;rounded=0;entryX=1;entryY=0.5;entryDx=0;entryDy=0;entryPerimeter=0;" edge="1" parent="7Cxw7odDGHsC5qwyH94--1" target="7Cxw7odDGHsC5qwyH94--18">
          <mxGeometry width="50" height="50" relative="1" as="geometry">
            <mxPoint x="239.99999999999997" y="155" as="sourcePoint" />
            <mxPoint x="240.49999999999997" y="185" as="targetPoint" />
            <Array as="points">
              <mxPoint x="240" y="180" />
            </Array>
          </mxGeometry>
        </mxCell>
        <mxCell id="7Cxw7odDGHsC5qwyH94--22" value="" style="endArrow=classic;html=1;rounded=0;" edge="1" parent="7Cxw7odDGHsC5qwyH94--1">
          <mxGeometry width="50" height="50" relative="1" as="geometry">
            <mxPoint x="214.70999999999998" y="205" as="sourcePoint" />
            <mxPoint x="215.20999999999998" y="235" as="targetPoint" />
          </mxGeometry>
        </mxCell>
        <mxCell id="7Cxw7odDGHsC5qwyH94--23" value="&lt;font data-font-src=&quot;https://fonts.googleapis.com/css?family=Sarabun&quot; face=&quot;Sarabun&quot;&gt;ตัวเชื่อม&lt;/font&gt;" style="text;html=1;align=center;verticalAlign=middle;resizable=0;points=[];autosize=1;strokeColor=none;fillColor=none;" vertex="1" parent="7Cxw7odDGHsC5qwyH94--1">
          <mxGeometry x="220" y="190" width="60" height="30" as="geometry" />
        </mxCell>
        <mxCell id="7Cxw7odDGHsC5qwyH94--24" value="" style="endArrow=classic;html=1;rounded=0;" edge="1" parent="7Cxw7odDGHsC5qwyH94--1">
          <mxGeometry width="50" height="50" relative="1" as="geometry">
            <mxPoint x="353.71" y="165" as="sourcePoint" />
            <mxPoint x="354.21" y="195" as="targetPoint" />
          </mxGeometry>
        </mxCell>
        <mxCell id="7Cxw7odDGHsC5qwyH94--25" value="" style="verticalLabelPosition=bottom;verticalAlign=top;html=1;shape=offPageConnector;rounded=0;size=0.5;" vertex="1" parent="7Cxw7odDGHsC5qwyH94--1">
          <mxGeometry x="339" y="195" width="30" height="30" as="geometry" />
        </mxCell>
        <mxCell id="7Cxw7odDGHsC5qwyH94--26" value="" style="endArrow=classic;html=1;rounded=0;" edge="1" parent="7Cxw7odDGHsC5qwyH94--1">
          <mxGeometry width="50" height="50" relative="1" as="geometry">
            <mxPoint x="405.71" y="195" as="sourcePoint" />
            <mxPoint x="406.21" y="225" as="targetPoint" />
          </mxGeometry>
        </mxCell>
        <mxCell id="7Cxw7odDGHsC5qwyH94--27" value="" style="verticalLabelPosition=bottom;verticalAlign=top;html=1;shape=offPageConnector;rounded=0;size=0.5;" vertex="1" parent="7Cxw7odDGHsC5qwyH94--1">
          <mxGeometry x="391" y="165" width="30" height="30" as="geometry" />
        </mxCell>
        <mxCell id="7Cxw7odDGHsC5qwyH94--28" value="หน้าต่อไป" style="text;html=1;align=center;verticalAlign=middle;resizable=0;points=[];autosize=1;strokeColor=none;fillColor=none;fontFamily=Sarabun;fontSource=https%3A%2F%2Ffonts.googleapis.com%2Fcss%3Ffamily%3DSarabun;" vertex="1" parent="7Cxw7odDGHsC5qwyH94--1">
          <mxGeometry x="345" y="220" width="70" height="30" as="geometry" />
        </mxCell>
        <mxCell id="7Cxw7odDGHsC5qwyH94--29" value="ก" style="text;html=1;align=center;verticalAlign=middle;resizable=0;points=[];autosize=1;strokeColor=none;fillColor=none;fontFamily=Sarabun;fontSource=https%3A%2F%2Ffonts.googleapis.com%2Fcss%3Ffamily%3DSarabun;" vertex="1" parent="7Cxw7odDGHsC5qwyH94--1">
          <mxGeometry x="339" y="190" width="30" height="30" as="geometry" />
        </mxCell>
        <mxCell id="7Cxw7odDGHsC5qwyH94--30" value="ก" style="text;html=1;align=center;verticalAlign=middle;resizable=0;points=[];autosize=1;strokeColor=none;fillColor=none;fontFamily=Sarabun;fontSource=https%3A%2F%2Ffonts.googleapis.com%2Fcss%3Ffamily%3DSarabun;" vertex="1" parent="7Cxw7odDGHsC5qwyH94--1">
          <mxGeometry x="391" y="160" width="30" height="30" as="geometry" />
        </mxCell>
        <mxCell id="7Cxw7odDGHsC5qwyH94--31" value="แสดงผล/รับค่า" style="shape=parallelogram;perimeter=parallelogramPerimeter;whiteSpace=wrap;html=1;fixedSize=1;fontFamily=Sarabun;fontSource=https%3A%2F%2Ffonts.googleapis.com%2Fcss%3Ffamily%3DSarabun;" vertex="1" parent="7Cxw7odDGHsC5qwyH94--1">
          <mxGeometry x="450" y="210" width="120" height="30" as="geometry" />
        </mxCell>
        <mxCell id="7Cxw7odDGHsC5qwyH94--32" value="" style="endArrow=classic;html=1;rounded=0;" edge="1" parent="7Cxw7odDGHsC5qwyH94--1">
          <mxGeometry width="50" height="50" relative="1" as="geometry">
            <mxPoint x="509.71" y="180" as="sourcePoint" />
            <mxPoint x="510.21" y="210" as="targetPoint" />
          </mxGeometry>
        </mxCell>
        <mxCell id="7Cxw7odDGHsC5qwyH94--33" value="" style="endArrow=classic;html=1;rounded=0;" edge="1" parent="7Cxw7odDGHsC5qwyH94--1">
          <mxGeometry width="50" height="50" relative="1" as="geometry">
            <mxPoint x="509.71" y="240" as="sourcePoint" />
            <mxPoint x="510.21" y="270" as="targetPoint" />
          </mxGeometry>
        </mxCell>
        <mxCell id="7Cxw7odDGHsC5qwyH94--34" value="แก้ไขโจทย์ปัญหา" style="swimlane;fontFamily=Sarabun;fontSource=https%3A%2F%2Ffonts.googleapis.com%2Fcss%3Ffamily%3DSarabun;" vertex="1" parent="1">
          <mxGeometry x="93" y="790" width="660" height="1530" as="geometry" />
        </mxCell>
        <mxCell id="7Cxw7odDGHsC5qwyH94--491" value="" style="edgeStyle=orthogonalEdgeStyle;rounded=0;orthogonalLoop=1;jettySize=auto;html=1;" edge="1" parent="7Cxw7odDGHsC5qwyH94--34" source="7Cxw7odDGHsC5qwyH94--36" target="7Cxw7odDGHsC5qwyH94--490">
          <mxGeometry relative="1" as="geometry" />
        </mxCell>
        <mxCell id="7Cxw7odDGHsC5qwyH94--36" value="&lt;font data-font-src=&quot;https://fonts.googleapis.com/css?family=Sarabun&quot; face=&quot;Sarabun&quot;&gt;เริ่มต้น&lt;/font&gt;" style="ellipse;whiteSpace=wrap;html=1;" vertex="1" parent="7Cxw7odDGHsC5qwyH94--34">
          <mxGeometry x="255" y="40" width="130" height="30" as="geometry" />
        </mxCell>
        <mxCell id="bYl-1Xse578YIiAx0MEK-28" value="" style="edgeStyle=none;curved=1;rounded=0;orthogonalLoop=1;jettySize=auto;html=1;fontSize=12;startSize=8;endSize=8;" edge="1" parent="7Cxw7odDGHsC5qwyH94--34" source="7Cxw7odDGHsC5qwyH94--38" target="bYl-1Xse578YIiAx0MEK-21">
          <mxGeometry relative="1" as="geometry" />
        </mxCell>
        <mxCell id="7Cxw7odDGHsC5qwyH94--38" value="ลูกค้าเลือกสินค้าจากเมนู" style="shape=parallelogram;perimeter=parallelogramPerimeter;whiteSpace=wrap;html=1;fixedSize=1;" vertex="1" parent="7Cxw7odDGHsC5qwyH94--34">
          <mxGeometry x="218.5" y="620" width="203" height="60" as="geometry" />
        </mxCell>
        <mxCell id="7Cxw7odDGHsC5qwyH94--505" style="edgeStyle=orthogonalEdgeStyle;rounded=0;orthogonalLoop=1;jettySize=auto;html=1;entryX=0;entryY=0.5;entryDx=0;entryDy=0;exitX=0;exitY=0.5;exitDx=0;exitDy=0;" edge="1" parent="7Cxw7odDGHsC5qwyH94--34" source="7Cxw7odDGHsC5qwyH94--47" target="7Cxw7odDGHsC5qwyH94--499">
          <mxGeometry relative="1" as="geometry">
            <Array as="points">
              <mxPoint x="107" y="964" />
              <mxPoint x="107" y="510" />
            </Array>
          </mxGeometry>
        </mxCell>
        <mxCell id="bYl-1Xse578YIiAx0MEK-23" value="" style="edgeStyle=none;curved=1;rounded=0;orthogonalLoop=1;jettySize=auto;html=1;fontSize=12;startSize=8;endSize=8;" edge="1" parent="7Cxw7odDGHsC5qwyH94--34" source="7Cxw7odDGHsC5qwyH94--47" target="bYl-1Xse578YIiAx0MEK-22">
          <mxGeometry relative="1" as="geometry" />
        </mxCell>
        <mxCell id="7Cxw7odDGHsC5qwyH94--47" value="ต้องการเลือกสิน&lt;div&gt;ค้าอื่นหรือไม่&lt;/div&gt;" style="rhombus;whiteSpace=wrap;html=1;" vertex="1" parent="7Cxw7odDGHsC5qwyH94--34">
          <mxGeometry x="255.5" y="898" width="131" height="131" as="geometry" />
        </mxCell>
        <mxCell id="7Cxw7odDGHsC5qwyH94--57" value="No" style="text;html=1;align=center;verticalAlign=middle;whiteSpace=wrap;rounded=0;" vertex="1" parent="7Cxw7odDGHsC5qwyH94--34">
          <mxGeometry x="309.5" y="1021" width="60" height="30" as="geometry" />
        </mxCell>
        <mxCell id="7Cxw7odDGHsC5qwyH94--58" value="Yes" style="text;html=1;align=center;verticalAlign=middle;whiteSpace=wrap;rounded=0;" vertex="1" parent="7Cxw7odDGHsC5qwyH94--34">
          <mxGeometry x="193.5" y="940" width="60" height="30" as="geometry" />
        </mxCell>
        <mxCell id="7Cxw7odDGHsC5qwyH94--494" value="" style="edgeStyle=orthogonalEdgeStyle;rounded=0;orthogonalLoop=1;jettySize=auto;html=1;" edge="1" parent="7Cxw7odDGHsC5qwyH94--34" source="7Cxw7odDGHsC5qwyH94--488" target="7Cxw7odDGHsC5qwyH94--493">
          <mxGeometry relative="1" as="geometry" />
        </mxCell>
        <mxCell id="7Cxw7odDGHsC5qwyH94--488" value="คลังสินค้า" style="shape=process;whiteSpace=wrap;html=1;backgroundOutline=1;" vertex="1" parent="7Cxw7odDGHsC5qwyH94--34">
          <mxGeometry x="259.5" y="170" width="120" height="60" as="geometry" />
        </mxCell>
        <mxCell id="7Cxw7odDGHsC5qwyH94--492" value="" style="edgeStyle=orthogonalEdgeStyle;rounded=0;orthogonalLoop=1;jettySize=auto;html=1;" edge="1" parent="7Cxw7odDGHsC5qwyH94--34" source="7Cxw7odDGHsC5qwyH94--490" target="7Cxw7odDGHsC5qwyH94--488">
          <mxGeometry relative="1" as="geometry" />
        </mxCell>
        <mxCell id="7Cxw7odDGHsC5qwyH94--490" value="เช็คคลัง" style="rounded=0;whiteSpace=wrap;html=1;" vertex="1" parent="7Cxw7odDGHsC5qwyH94--34">
          <mxGeometry x="260" y="90" width="120" height="60" as="geometry" />
        </mxCell>
        <mxCell id="7Cxw7odDGHsC5qwyH94--528" value="" style="edgeStyle=orthogonalEdgeStyle;rounded=0;orthogonalLoop=1;jettySize=auto;html=1;" edge="1" parent="7Cxw7odDGHsC5qwyH94--34" source="7Cxw7odDGHsC5qwyH94--493" target="7Cxw7odDGHsC5qwyH94--527">
          <mxGeometry relative="1" as="geometry" />
        </mxCell>
        <mxCell id="7Cxw7odDGHsC5qwyH94--493" value="เงินที่มีในตู้" style="shape=process;whiteSpace=wrap;html=1;backgroundOutline=1;" vertex="1" parent="7Cxw7odDGHsC5qwyH94--34">
          <mxGeometry x="260" y="250" width="120" height="60" as="geometry" />
        </mxCell>
        <mxCell id="bYl-1Xse578YIiAx0MEK-25" value="" style="edgeStyle=none;curved=1;rounded=0;orthogonalLoop=1;jettySize=auto;html=1;fontSize=12;startSize=8;endSize=8;" edge="1" parent="7Cxw7odDGHsC5qwyH94--34" source="7Cxw7odDGHsC5qwyH94--499" target="bYl-1Xse578YIiAx0MEK-20">
          <mxGeometry relative="1" as="geometry" />
        </mxCell>
        <mxCell id="7Cxw7odDGHsC5qwyH94--499" value="" style="ellipse;whiteSpace=wrap;html=1;aspect=fixed;" vertex="1" parent="7Cxw7odDGHsC5qwyH94--34">
          <mxGeometry x="310" y="500" width="20" height="20" as="geometry" />
        </mxCell>
        <mxCell id="7Cxw7odDGHsC5qwyH94--521" value="" style="edgeStyle=orthogonalEdgeStyle;rounded=0;orthogonalLoop=1;jettySize=auto;html=1;entryX=0.5;entryY=0;entryDx=0;entryDy=0;" edge="1" parent="7Cxw7odDGHsC5qwyH94--34" source="7Cxw7odDGHsC5qwyH94--506" target="7Cxw7odDGHsC5qwyH94--520">
          <mxGeometry relative="1" as="geometry" />
        </mxCell>
        <mxCell id="7Cxw7odDGHsC5qwyH94--506" value="เก็บรายการสินค้าไว้ในตัวแปร H +" style="rounded=0;whiteSpace=wrap;html=1;" vertex="1" parent="7Cxw7odDGHsC5qwyH94--34">
          <mxGeometry x="261" y="780" width="120" height="60" as="geometry" />
        </mxCell>
        <mxCell id="7Cxw7odDGHsC5qwyH94--516" value="" style="edgeStyle=orthogonalEdgeStyle;rounded=0;orthogonalLoop=1;jettySize=auto;html=1;" edge="1" parent="7Cxw7odDGHsC5qwyH94--34" source="7Cxw7odDGHsC5qwyH94--509" target="7Cxw7odDGHsC5qwyH94--515">
          <mxGeometry relative="1" as="geometry" />
        </mxCell>
        <mxCell id="7Cxw7odDGHsC5qwyH94--509" value="ต้องการยกเลิกรายการสินค้าหรือไม่(ต่อ1ชิ้ิน)" style="rhombus;whiteSpace=wrap;html=1;" vertex="1" parent="7Cxw7odDGHsC5qwyH94--34">
          <mxGeometry x="239" y="1180" width="156" height="160" as="geometry" />
        </mxCell>
        <mxCell id="7Cxw7odDGHsC5qwyH94--523" style="edgeStyle=orthogonalEdgeStyle;rounded=0;orthogonalLoop=1;jettySize=auto;html=1;entryX=1;entryY=0.5;entryDx=0;entryDy=0;" edge="1" parent="7Cxw7odDGHsC5qwyH94--34" source="7Cxw7odDGHsC5qwyH94--513" target="7Cxw7odDGHsC5qwyH94--520">
          <mxGeometry relative="1" as="geometry">
            <Array as="points">
              <mxPoint x="505" y="870" />
            </Array>
          </mxGeometry>
        </mxCell>
        <mxCell id="7Cxw7odDGHsC5qwyH94--513" value="ลบรายการสินค้าที่อยู่ในตัวแปร H -" style="rounded=0;whiteSpace=wrap;html=1;" vertex="1" parent="7Cxw7odDGHsC5qwyH94--34">
          <mxGeometry x="445" y="991" width="120" height="60" as="geometry" />
        </mxCell>
        <mxCell id="7Cxw7odDGHsC5qwyH94--517" value="" style="edgeStyle=orthogonalEdgeStyle;rounded=0;orthogonalLoop=1;jettySize=auto;html=1;" edge="1" parent="7Cxw7odDGHsC5qwyH94--34" source="7Cxw7odDGHsC5qwyH94--515" target="7Cxw7odDGHsC5qwyH94--513">
          <mxGeometry relative="1" as="geometry" />
        </mxCell>
        <mxCell id="7Cxw7odDGHsC5qwyH94--515" value="รายการที่ต้อการยกเลิก" style="shape=parallelogram;perimeter=parallelogramPerimeter;whiteSpace=wrap;html=1;fixedSize=1;" vertex="1" parent="7Cxw7odDGHsC5qwyH94--34">
          <mxGeometry x="430" y="1230" width="150" height="60" as="geometry" />
        </mxCell>
        <mxCell id="7Cxw7odDGHsC5qwyH94--522" style="edgeStyle=orthogonalEdgeStyle;rounded=0;orthogonalLoop=1;jettySize=auto;html=1;entryX=0.5;entryY=0;entryDx=0;entryDy=0;" edge="1" parent="7Cxw7odDGHsC5qwyH94--34" source="7Cxw7odDGHsC5qwyH94--520" target="7Cxw7odDGHsC5qwyH94--47">
          <mxGeometry relative="1" as="geometry" />
        </mxCell>
        <mxCell id="7Cxw7odDGHsC5qwyH94--520" value="" style="ellipse;whiteSpace=wrap;html=1;aspect=fixed;" vertex="1" parent="7Cxw7odDGHsC5qwyH94--34">
          <mxGeometry x="311" y="860" width="20" height="20" as="geometry" />
        </mxCell>
        <mxCell id="7Cxw7odDGHsC5qwyH94--511" value="" style="edgeStyle=orthogonalEdgeStyle;rounded=0;orthogonalLoop=1;jettySize=auto;html=1;entryX=0.5;entryY=0;entryDx=0;entryDy=0;" edge="1" parent="7Cxw7odDGHsC5qwyH94--34" source="7Cxw7odDGHsC5qwyH94--509" target="7Cxw7odDGHsC5qwyH94--526">
          <mxGeometry relative="1" as="geometry">
            <mxPoint x="318.5" y="1321" as="targetPoint" />
          </mxGeometry>
        </mxCell>
        <mxCell id="7Cxw7odDGHsC5qwyH94--524" value="Yes" style="text;html=1;align=center;verticalAlign=middle;whiteSpace=wrap;rounded=0;" vertex="1" parent="7Cxw7odDGHsC5qwyH94--34">
          <mxGeometry x="383.5" y="1240" width="60" height="30" as="geometry" />
        </mxCell>
        <mxCell id="7Cxw7odDGHsC5qwyH94--525" value="No" style="text;html=1;align=center;verticalAlign=middle;whiteSpace=wrap;rounded=0;" vertex="1" parent="7Cxw7odDGHsC5qwyH94--34">
          <mxGeometry x="311" y="1270" width="60" height="30" as="geometry" />
        </mxCell>
        <mxCell id="7Cxw7odDGHsC5qwyH94--532" value="" style="edgeStyle=orthogonalEdgeStyle;rounded=0;orthogonalLoop=1;jettySize=auto;html=1;" edge="1" parent="7Cxw7odDGHsC5qwyH94--34" source="7Cxw7odDGHsC5qwyH94--526" target="7Cxw7odDGHsC5qwyH94--530">
          <mxGeometry relative="1" as="geometry" />
        </mxCell>
        <mxCell id="7Cxw7odDGHsC5qwyH94--526" value="ชำระเงิน" style="shape=process;whiteSpace=wrap;html=1;backgroundOutline=1;" vertex="1" parent="7Cxw7odDGHsC5qwyH94--34">
          <mxGeometry x="256" y="1410" width="120" height="60" as="geometry" />
        </mxCell>
        <mxCell id="7Cxw7odDGHsC5qwyH94--529" value="" style="edgeStyle=orthogonalEdgeStyle;rounded=0;orthogonalLoop=1;jettySize=auto;html=1;" edge="1" parent="7Cxw7odDGHsC5qwyH94--34" source="7Cxw7odDGHsC5qwyH94--527" target="7Cxw7odDGHsC5qwyH94--499">
          <mxGeometry relative="1" as="geometry" />
        </mxCell>
        <mxCell id="7Cxw7odDGHsC5qwyH94--527" value="ประกาศตัวแปร H" style="rounded=0;whiteSpace=wrap;html=1;" vertex="1" parent="7Cxw7odDGHsC5qwyH94--34">
          <mxGeometry x="260" y="390" width="120" height="60" as="geometry" />
        </mxCell>
        <mxCell id="7Cxw7odDGHsC5qwyH94--530" value="&lt;font face=&quot;Sarabun&quot;&gt;สิ้นสุด&lt;/font&gt;" style="ellipse;whiteSpace=wrap;html=1;" vertex="1" parent="7Cxw7odDGHsC5qwyH94--34">
          <mxGeometry x="250" y="1490" width="130" height="30" as="geometry" />
        </mxCell>
        <mxCell id="bYl-1Xse578YIiAx0MEK-27" style="edgeStyle=none;curved=1;rounded=0;orthogonalLoop=1;jettySize=auto;html=1;entryX=0.5;entryY=0;entryDx=0;entryDy=0;fontSize=12;startSize=8;endSize=8;" edge="1" parent="7Cxw7odDGHsC5qwyH94--34" source="bYl-1Xse578YIiAx0MEK-20" target="7Cxw7odDGHsC5qwyH94--38">
          <mxGeometry relative="1" as="geometry" />
        </mxCell>
        <mxCell id="bYl-1Xse578YIiAx0MEK-20" value="แสดงชื่อสินค้า / รูป / ราคา&lt;div&gt;&amp;nbsp;/ ปุ่มเลือกสินค้า&lt;/div&gt;" style="shape=display;whiteSpace=wrap;html=1;" vertex="1" parent="7Cxw7odDGHsC5qwyH94--34">
          <mxGeometry x="213" y="540" width="215" height="60" as="geometry" />
        </mxCell>
        <mxCell id="bYl-1Xse578YIiAx0MEK-30" style="edgeStyle=none;curved=1;rounded=0;orthogonalLoop=1;jettySize=auto;html=1;entryX=0.5;entryY=0;entryDx=0;entryDy=0;fontSize=12;startSize=8;endSize=8;" edge="1" parent="7Cxw7odDGHsC5qwyH94--34" source="bYl-1Xse578YIiAx0MEK-21" target="7Cxw7odDGHsC5qwyH94--506">
          <mxGeometry relative="1" as="geometry" />
        </mxCell>
        <mxCell id="bYl-1Xse578YIiAx0MEK-21" value="รายการที่เลือก / แสดงราคารวม" style="shape=display;whiteSpace=wrap;html=1;" vertex="1" parent="7Cxw7odDGHsC5qwyH94--34">
          <mxGeometry x="211" y="700" width="215" height="60" as="geometry" />
        </mxCell>
        <mxCell id="bYl-1Xse578YIiAx0MEK-22" value="รายการสิ้นค้า" style="shape=display;whiteSpace=wrap;html=1;" vertex="1" parent="7Cxw7odDGHsC5qwyH94--34">
          <mxGeometry x="267" y="1051" width="108" height="39" as="geometry" />
        </mxCell>
        <mxCell id="bYl-1Xse578YIiAx0MEK-36" style="edgeStyle=none;curved=1;rounded=0;orthogonalLoop=1;jettySize=auto;html=1;entryX=0.5;entryY=0;entryDx=0;entryDy=0;fontSize=12;startSize=8;endSize=8;" edge="1" parent="7Cxw7odDGHsC5qwyH94--34" source="bYl-1Xse578YIiAx0MEK-32" target="7Cxw7odDGHsC5qwyH94--509">
          <mxGeometry relative="1" as="geometry" />
        </mxCell>
        <mxCell id="bYl-1Xse578YIiAx0MEK-32" value="ชำระเงิน / ยกเลิกรายการสินค้า" style="shape=display;whiteSpace=wrap;html=1;" vertex="1" parent="7Cxw7odDGHsC5qwyH94--34">
          <mxGeometry x="263" y="1110" width="108" height="39" as="geometry" />
        </mxCell>
        <mxCell id="bYl-1Xse578YIiAx0MEK-35" style="edgeStyle=none;curved=1;rounded=0;orthogonalLoop=1;jettySize=auto;html=1;entryX=0;entryY=0;entryDx=57.75;entryDy=0;entryPerimeter=0;fontSize=12;startSize=8;endSize=8;" edge="1" parent="7Cxw7odDGHsC5qwyH94--34" source="bYl-1Xse578YIiAx0MEK-22" target="bYl-1Xse578YIiAx0MEK-32">
          <mxGeometry relative="1" as="geometry" />
        </mxCell>
        <mxCell id="7Cxw7odDGHsC5qwyH94--76" value="&lt;font data-font-src=&quot;https://fonts.googleapis.com/css?family=Sarabun&quot; face=&quot;Sarabun&quot;&gt;โจทย์ปัญหา&lt;/font&gt;" style="swimlane;whiteSpace=wrap;html=1;" vertex="1" parent="1">
          <mxGeometry x="90" y="470" width="640" height="240" as="geometry" />
        </mxCell>
        <mxCell id="7Cxw7odDGHsC5qwyH94--77" value="&lt;font data-font-src=&quot;https://fonts.googleapis.com/css?family=Sarabun&quot; face=&quot;Sarabun&quot; style=&quot;font-size: 14px;&quot;&gt;จงเขียน Flowchart เพื่อแสดงขั้นตอนการทำงาน ของเครื่องขายน้ำอัตโนมัติที่ชื่อว่า &quot;ตะพาบลอย&quot;&lt;br&gt;โดยจะต้องมีสินค้าดังนี้&lt;br&gt;&lt;u&gt;ประเภทน้ำ&lt;span style=&quot;white-space: pre;&quot;&gt;&#x9;&lt;/span&gt;&lt;span style=&quot;white-space: pre;&quot;&gt;&#x9;&lt;/span&gt;&lt;span style=&quot;white-space: pre;&quot;&gt;&#x9;&lt;/span&gt;&lt;span style=&quot;white-space: pre;&quot;&gt;&#x9;&lt;/span&gt;&lt;span style=&quot;white-space: pre;&quot;&gt;&#x9;&lt;/span&gt;&lt;span style=&quot;white-space: pre;&quot;&gt;&#x9;&lt;span style=&quot;white-space: pre;&quot;&gt;&#x9;&lt;/span&gt;ข&lt;/span&gt;นม&lt;/u&gt;&lt;br&gt;&lt;span style=&quot;white-space: pre;&quot;&gt;&#x9;&lt;/span&gt;- โค้ก กระป๋องละ 10 บาท&lt;span style=&quot;white-space: pre;&quot;&gt;&#x9;&lt;/span&gt;&lt;span style=&quot;white-space: pre;&quot;&gt;&#x9;&lt;/span&gt;&lt;span style=&quot;white-space: pre;&quot;&gt;&#x9;&lt;/span&gt;&lt;span style=&quot;white-space: pre;&quot;&gt;&#x9;&lt;/span&gt;- เมล็ดทานตะวัน 13 บาท&lt;br&gt;&lt;span style=&quot;white-space: pre;&quot;&gt;&#x9;&lt;/span&gt;- น้ำเขียว กระป๋องละ 12 บาท&lt;span style=&quot;white-space: pre;&quot;&gt;&#x9;&lt;/span&gt;&lt;span style=&quot;white-space: pre;&quot;&gt;&#x9;&lt;/span&gt;&lt;span style=&quot;white-space: pre;&quot;&gt;&#x9;&lt;/span&gt;- ถั่วแปบ 20 บาท&lt;br&gt;&lt;span style=&quot;white-space: pre;&quot;&gt;&#x9;&lt;/span&gt;- อเมริกาโน่ 30 บาท&lt;span style=&quot;white-space: pre;&quot;&gt;&#x9;&lt;/span&gt;&lt;span style=&quot;white-space: pre;&quot;&gt;&#x9;&lt;/span&gt;&lt;span style=&quot;white-space: pre;&quot;&gt;&#x9;&lt;/span&gt;&lt;span style=&quot;white-space: pre;&quot;&gt;&#x9;&lt;/span&gt;&lt;span style=&quot;white-space: pre;&quot;&gt;&#x9;&lt;/span&gt;- จิ้นส้มหมก 15 บาท&lt;br&gt;&lt;span style=&quot;white-space: pre;&quot;&gt;&#x9;&lt;/span&gt;- ลาเต้ หวานเจี๊ยบ 35 บาท&lt;span style=&quot;white-space: pre;&quot;&gt;&#x9;&lt;/span&gt;&lt;br&gt;&lt;br&gt;&lt;u&gt;สิ่งที่ระบบควรจะทำได้&lt;/u&gt;&lt;br&gt;&lt;span style=&quot;white-space: pre;&quot;&gt;&#x9;&lt;/span&gt;- ลูกค้าเลือกสินค้า, ระบบจะต้องรวมยอดขาย และรวมรายการสินค้าทั้งหมดที่ลูกค้าเลือก&lt;br&gt;&lt;span style=&quot;white-space: pre;&quot;&gt;&#x9;&lt;/span&gt;- สรุปยอดว่าเหลือเงินในตู้อีกเท่าไหร่ เหลือเหรียญอะไรบ้าง? ธนบัตรอะไรบ้าง? อย่างละเท่าไหร่?&lt;br&gt;&lt;br&gt;&lt;br&gt;&lt;/font&gt;" style="text;html=1;align=left;verticalAlign=middle;resizable=0;points=[];autosize=1;strokeColor=none;fillColor=none;fontSize=14;" vertex="1" parent="7Cxw7odDGHsC5qwyH94--76">
          <mxGeometry x="25" y="30" width="580" height="240" as="geometry" />
        </mxCell>
        <mxCell id="7Cxw7odDGHsC5qwyH94--194" value="&lt;p style=&quot;margin:0px;margin-top:4px;text-align:center;&quot;&gt;&lt;span style=&quot;font-family: Sarabun;&quot;&gt;ฟังก์ชันตรวจสอบเงินที่มีในตู้&lt;/span&gt;&lt;/p&gt;&lt;hr size=&quot;1&quot; style=&quot;border-style:solid;&quot;&gt;&lt;div style=&quot;height:2px;&quot;&gt;&lt;/div&gt;" style="verticalAlign=top;align=left;overflow=fill;html=1;whiteSpace=wrap;fillColor=none;" vertex="1" parent="1">
          <mxGeometry x="931.25" y="180" width="590" height="860" as="geometry" />
        </mxCell>
        <mxCell id="7Cxw7odDGHsC5qwyH94--196" value="&lt;font face=&quot;Sarabun&quot;&gt;สิ้นสุด&lt;/font&gt;" style="ellipse;whiteSpace=wrap;html=1;" vertex="1" parent="1">
          <mxGeometry x="1147.5" y="975" width="130" height="30" as="geometry" />
        </mxCell>
        <mxCell id="7Cxw7odDGHsC5qwyH94--313" value="" style="edgeStyle=orthogonalEdgeStyle;rounded=0;orthogonalLoop=1;jettySize=auto;html=1;" edge="1" parent="1" source="7Cxw7odDGHsC5qwyH94--197" target="7Cxw7odDGHsC5qwyH94--215">
          <mxGeometry relative="1" as="geometry" />
        </mxCell>
        <mxCell id="7Cxw7odDGHsC5qwyH94--197" value="&lt;div&gt;&lt;div&gt;&lt;div&gt;&lt;span style=&quot;background-color: transparent; color: light-dark(rgb(0, 0, 0), rgb(255, 255, 255));&quot;&gt;เหลียน 1 บาท 50 เหลียน&lt;/span&gt;&lt;/div&gt;&lt;div&gt;&lt;span style=&quot;background-color: transparent; color: light-dark(rgb(0, 0, 0), rgb(255, 255, 255));&quot;&gt;เหลียน 2 บาท&amp;nbsp;&lt;/span&gt;&lt;span style=&quot;background-color: transparent; color: light-dark(rgb(0, 0, 0), rgb(255, 255, 255));&quot;&gt;50 เหลียน&lt;/span&gt;&lt;/div&gt;&lt;div&gt;&lt;span style=&quot;background-color: transparent; color: light-dark(rgb(0, 0, 0), rgb(255, 255, 255));&quot;&gt;เหลียน 5 บาท&amp;nbsp;&lt;/span&gt;&lt;span style=&quot;background-color: transparent; color: light-dark(rgb(0, 0, 0), rgb(255, 255, 255));&quot;&gt;50 เหลียน&lt;/span&gt;&lt;/div&gt;&lt;/div&gt;&lt;div&gt;&lt;span style=&quot;color: light-dark(rgb(0, 0, 0), rgb(255, 255, 255)); background-color: transparent;&quot;&gt;เหลียน 10 บาท 4&lt;/span&gt;&lt;span style=&quot;background-color: transparent; color: light-dark(rgb(0, 0, 0), rgb(255, 255, 255));&quot;&gt;0 เหลียน&lt;/span&gt;&lt;/div&gt;&lt;div&gt;แบงค์ 20 บาท 20 แบงค์&lt;div&gt;แบงค์ 50 บาท 20&amp;nbsp;&lt;span style=&quot;background-color: transparent; color: light-dark(rgb(0, 0, 0), rgb(255, 255, 255));&quot;&gt;แบงค์&lt;/span&gt;&lt;/div&gt;&lt;div&gt;แบงค์ 100 บาท 10&amp;nbsp;&lt;span style=&quot;background-color: transparent; color: light-dark(rgb(0, 0, 0), rgb(255, 255, 255));&quot;&gt;แบงค์&lt;/span&gt;&lt;/div&gt;&lt;div&gt;&lt;span style=&quot;background-color: transparent; color: light-dark(rgb(0, 0, 0), rgb(255, 255, 255));&quot;&gt;แบงค์ 500 บาท 5&amp;nbsp;&lt;/span&gt;&lt;span style=&quot;background-color: transparent; color: light-dark(rgb(0, 0, 0), rgb(255, 255, 255));&quot;&gt;แบงค์&lt;/span&gt;&lt;/div&gt;&lt;div&gt;&lt;span style=&quot;color: light-dark(rgb(0, 0, 0), rgb(255, 255, 255)); background-color: transparent;&quot;&gt;แบงค์ 1000 บาท 3&amp;nbsp;&lt;/span&gt;&lt;span style=&quot;background-color: transparent; color: light-dark(rgb(0, 0, 0), rgb(255, 255, 255));&quot;&gt;&lt;/span&gt;&lt;span style=&quot;background-color: transparent; color: light-dark(rgb(0, 0, 0), rgb(255, 255, 255));&quot;&gt;แบงค์&lt;/span&gt;&lt;/div&gt;&lt;/div&gt;&lt;/div&gt;" style="html=1;whiteSpace=wrap;" vertex="1" parent="1">
          <mxGeometry x="1127.5" y="375" width="170" height="180" as="geometry" />
        </mxCell>
        <mxCell id="7Cxw7odDGHsC5qwyH94--201" value="&lt;p style=&quot;margin:0px;margin-top:4px;text-align:center;&quot;&gt;&lt;span style=&quot;font-family: Sarabun;&quot;&gt;ฟังก์ชันเพิ่มลบเงิน&lt;/span&gt;&lt;/p&gt;&lt;hr size=&quot;1&quot; style=&quot;border-style:solid;&quot;&gt;&lt;div style=&quot;height:2px;&quot;&gt;&lt;/div&gt;" style="verticalAlign=top;align=left;overflow=fill;html=1;whiteSpace=wrap;fillColor=none;" vertex="1" parent="1">
          <mxGeometry x="906.25" y="1240" width="590" height="1050" as="geometry" />
        </mxCell>
        <mxCell id="7Cxw7odDGHsC5qwyH94--213" value="&lt;font face=&quot;Sarabun&quot;&gt;สิ้นสุด&lt;/font&gt;" style="ellipse;whiteSpace=wrap;html=1;" vertex="1" parent="1">
          <mxGeometry x="1136.25" y="2210" width="130" height="30" as="geometry" />
        </mxCell>
        <mxCell id="7Cxw7odDGHsC5qwyH94--314" value="" style="edgeStyle=orthogonalEdgeStyle;rounded=0;orthogonalLoop=1;jettySize=auto;html=1;" edge="1" parent="1" source="7Cxw7odDGHsC5qwyH94--215" target="7Cxw7odDGHsC5qwyH94--216">
          <mxGeometry relative="1" as="geometry" />
        </mxCell>
        <mxCell id="7Cxw7odDGHsC5qwyH94--318" style="edgeStyle=orthogonalEdgeStyle;rounded=0;orthogonalLoop=1;jettySize=auto;html=1;entryX=0.5;entryY=1;entryDx=0;entryDy=0;" edge="1" parent="1" source="7Cxw7odDGHsC5qwyH94--215" target="7Cxw7odDGHsC5qwyH94--316">
          <mxGeometry relative="1" as="geometry" />
        </mxCell>
        <mxCell id="7Cxw7odDGHsC5qwyH94--215" value="จำนวนธนาบัตร/เหลียน&lt;div&gt;มากกว่า 0 หรือไม่&lt;/div&gt;" style="rhombus;whiteSpace=wrap;html=1;" vertex="1" parent="1">
          <mxGeometry x="1121.25" y="595" width="182.5" height="160" as="geometry" />
        </mxCell>
        <mxCell id="7Cxw7odDGHsC5qwyH94--315" value="" style="edgeStyle=orthogonalEdgeStyle;rounded=0;orthogonalLoop=1;jettySize=auto;html=1;" edge="1" parent="1" source="7Cxw7odDGHsC5qwyH94--216" target="7Cxw7odDGHsC5qwyH94--236">
          <mxGeometry relative="1" as="geometry" />
        </mxCell>
        <mxCell id="7Cxw7odDGHsC5qwyH94--216" value="ลบเงินในคลังลง 1 หน่วย" style="rounded=0;whiteSpace=wrap;html=1;" vertex="1" parent="1">
          <mxGeometry x="1152.5" y="795" width="120" height="60" as="geometry" />
        </mxCell>
        <mxCell id="7Cxw7odDGHsC5qwyH94--312" value="" style="edgeStyle=orthogonalEdgeStyle;rounded=0;orthogonalLoop=1;jettySize=auto;html=1;" edge="1" parent="1" source="7Cxw7odDGHsC5qwyH94--229" target="7Cxw7odDGHsC5qwyH94--197">
          <mxGeometry relative="1" as="geometry" />
        </mxCell>
        <mxCell id="7Cxw7odDGHsC5qwyH94--229" value="ตรวจสองเงิน" style="rounded=0;whiteSpace=wrap;html=1;" vertex="1" parent="1">
          <mxGeometry x="1152.5" y="295" width="120" height="60" as="geometry" />
        </mxCell>
        <mxCell id="7Cxw7odDGHsC5qwyH94--323" style="edgeStyle=orthogonalEdgeStyle;rounded=0;orthogonalLoop=1;jettySize=auto;html=1;entryX=0.5;entryY=0;entryDx=0;entryDy=0;" edge="1" parent="1" source="7Cxw7odDGHsC5qwyH94--236" target="7Cxw7odDGHsC5qwyH94--196">
          <mxGeometry relative="1" as="geometry" />
        </mxCell>
        <mxCell id="7Cxw7odDGHsC5qwyH94--236" value="ลบจำนวนไห้พอกับเงินที่ต้องทอน" style="rounded=0;whiteSpace=wrap;html=1;" vertex="1" parent="1">
          <mxGeometry x="1152.5" y="885" width="120" height="60" as="geometry" />
        </mxCell>
        <mxCell id="7Cxw7odDGHsC5qwyH94--238" value="No" style="text;html=1;align=center;verticalAlign=middle;whiteSpace=wrap;rounded=0;" vertex="1" parent="1">
          <mxGeometry x="1297.5" y="645" width="60" height="30" as="geometry" />
        </mxCell>
        <mxCell id="7Cxw7odDGHsC5qwyH94--239" value="Yes" style="text;html=1;align=center;verticalAlign=middle;whiteSpace=wrap;rounded=0;" vertex="1" parent="1">
          <mxGeometry x="1167.5" y="755" width="60" height="30" as="geometry" />
        </mxCell>
        <mxCell id="7Cxw7odDGHsC5qwyH94--260" style="edgeStyle=orthogonalEdgeStyle;rounded=0;orthogonalLoop=1;jettySize=auto;html=1;entryX=0.5;entryY=0;entryDx=0;entryDy=0;" edge="1" parent="1" source="7Cxw7odDGHsC5qwyH94--241" target="7Cxw7odDGHsC5qwyH94--248">
          <mxGeometry relative="1" as="geometry" />
        </mxCell>
        <mxCell id="7Cxw7odDGHsC5qwyH94--241" value="ชำระเงิน" style="shape=process;whiteSpace=wrap;html=1;backgroundOutline=1;" vertex="1" parent="1">
          <mxGeometry x="1136.25" y="1290" width="120" height="60" as="geometry" />
        </mxCell>
        <mxCell id="7Cxw7odDGHsC5qwyH94--274" value="" style="edgeStyle=orthogonalEdgeStyle;rounded=0;orthogonalLoop=1;jettySize=auto;html=1;" edge="1" parent="1" source="7Cxw7odDGHsC5qwyH94--242" target="7Cxw7odDGHsC5qwyH94--273">
          <mxGeometry relative="1" as="geometry" />
        </mxCell>
        <mxCell id="7Cxw7odDGHsC5qwyH94--242" value="รอของจากตู้แปปนะครับ" style="shape=parallelogram;perimeter=parallelogramPerimeter;whiteSpace=wrap;html=1;fixedSize=1;" vertex="1" parent="1">
          <mxGeometry x="1303.25" y="1990" width="148.5" height="47.5" as="geometry" />
        </mxCell>
        <mxCell id="7Cxw7odDGHsC5qwyH94--261" value="" style="edgeStyle=orthogonalEdgeStyle;rounded=0;orthogonalLoop=1;jettySize=auto;html=1;" edge="1" parent="1" source="7Cxw7odDGHsC5qwyH94--248" target="7Cxw7odDGHsC5qwyH94--249">
          <mxGeometry relative="1" as="geometry" />
        </mxCell>
        <mxCell id="7Cxw7odDGHsC5qwyH94--262" style="edgeStyle=orthogonalEdgeStyle;rounded=0;orthogonalLoop=1;jettySize=auto;html=1;entryX=0.5;entryY=0;entryDx=0;entryDy=0;" edge="1" parent="1" source="7Cxw7odDGHsC5qwyH94--248" target="7Cxw7odDGHsC5qwyH94--250">
          <mxGeometry relative="1" as="geometry" />
        </mxCell>
        <mxCell id="7Cxw7odDGHsC5qwyH94--248" value="ต้องการชำระเงินแบบ&amp;nbsp;&lt;div&gt;QR หรือไม่&lt;/div&gt;" style="rhombus;whiteSpace=wrap;html=1;" vertex="1" parent="1">
          <mxGeometry x="1124" y="1380" width="145" height="130" as="geometry" />
        </mxCell>
        <mxCell id="7Cxw7odDGHsC5qwyH94--249" value="แสดง QR พร้อมเพลย์" style="shape=parallelogram;perimeter=parallelogramPerimeter;whiteSpace=wrap;html=1;fixedSize=1;" vertex="1" parent="1">
          <mxGeometry x="1106.5" y="1540" width="180" height="60" as="geometry" />
        </mxCell>
        <mxCell id="7Cxw7odDGHsC5qwyH94--263" value="" style="edgeStyle=orthogonalEdgeStyle;rounded=0;orthogonalLoop=1;jettySize=auto;html=1;entryX=0.5;entryY=0;entryDx=0;entryDy=0;" edge="1" parent="1" source="7Cxw7odDGHsC5qwyH94--250" target="7Cxw7odDGHsC5qwyH94--251">
          <mxGeometry relative="1" as="geometry" />
        </mxCell>
        <mxCell id="7Cxw7odDGHsC5qwyH94--250" value="แสดงราคารวมสิ้นค้าทั้งหมด" style="shape=parallelogram;perimeter=parallelogramPerimeter;whiteSpace=wrap;html=1;fixedSize=1;" vertex="1" parent="1">
          <mxGeometry x="1288.25" y="1540" width="178.5" height="60" as="geometry" />
        </mxCell>
        <mxCell id="7Cxw7odDGHsC5qwyH94--264" style="edgeStyle=orthogonalEdgeStyle;rounded=0;orthogonalLoop=1;jettySize=auto;html=1;entryX=0.5;entryY=0;entryDx=0;entryDy=0;" edge="1" parent="1" source="7Cxw7odDGHsC5qwyH94--251" target="7Cxw7odDGHsC5qwyH94--252">
          <mxGeometry relative="1" as="geometry" />
        </mxCell>
        <mxCell id="7Cxw7odDGHsC5qwyH94--251" value="รับเงินจากลูกค้า" style="rounded=0;whiteSpace=wrap;html=1;" vertex="1" parent="1">
          <mxGeometry x="1317.5" y="1620" width="120" height="50" as="geometry" />
        </mxCell>
        <mxCell id="7Cxw7odDGHsC5qwyH94--265" style="edgeStyle=orthogonalEdgeStyle;rounded=0;orthogonalLoop=1;jettySize=auto;html=1;entryX=1;entryY=0.5;entryDx=0;entryDy=0;" edge="1" parent="1" source="7Cxw7odDGHsC5qwyH94--252" target="7Cxw7odDGHsC5qwyH94--256">
          <mxGeometry relative="1" as="geometry" />
        </mxCell>
        <mxCell id="7Cxw7odDGHsC5qwyH94--266" style="edgeStyle=orthogonalEdgeStyle;rounded=0;orthogonalLoop=1;jettySize=auto;html=1;entryX=0.5;entryY=0;entryDx=0;entryDy=0;" edge="1" parent="1" source="7Cxw7odDGHsC5qwyH94--252" target="7Cxw7odDGHsC5qwyH94--257">
          <mxGeometry relative="1" as="geometry" />
        </mxCell>
        <mxCell id="7Cxw7odDGHsC5qwyH94--252" value="ลูก&lt;span style=&quot;background-color: transparent; color: light-dark(rgb(0, 0, 0), rgb(255, 255, 255));&quot;&gt;ค้าจ่ายเงิน&lt;/span&gt;&lt;div&gt;&lt;span style=&quot;background-color: transparent; color: light-dark(rgb(0, 0, 0), rgb(255, 255, 255));&quot;&gt;หรือยัง&lt;/span&gt;&lt;/div&gt;" style="rhombus;whiteSpace=wrap;html=1;" vertex="1" parent="1">
          <mxGeometry x="1322.5" y="1690" width="110" height="110" as="geometry" />
        </mxCell>
        <mxCell id="7Cxw7odDGHsC5qwyH94--253" value="No" style="text;html=1;align=center;verticalAlign=middle;whiteSpace=wrap;rounded=0;" vertex="1" parent="1">
          <mxGeometry x="1256.25" y="1420" width="60" height="30" as="geometry" />
        </mxCell>
        <mxCell id="7Cxw7odDGHsC5qwyH94--254" value="Yes" style="text;html=1;align=center;verticalAlign=middle;whiteSpace=wrap;rounded=0;" vertex="1" parent="1">
          <mxGeometry x="1156.25" y="1510" width="60" height="30" as="geometry" />
        </mxCell>
        <mxCell id="7Cxw7odDGHsC5qwyH94--270" value="" style="edgeStyle=orthogonalEdgeStyle;rounded=0;orthogonalLoop=1;jettySize=auto;html=1;" edge="1" parent="1" source="7Cxw7odDGHsC5qwyH94--255" target="7Cxw7odDGHsC5qwyH94--259">
          <mxGeometry relative="1" as="geometry" />
        </mxCell>
        <mxCell id="7Cxw7odDGHsC5qwyH94--255" value="&lt;div&gt;ถ้าปลอมไห้ทอนเงิน&lt;/div&gt;&lt;div&gt;ที่รับมาคืนไป&lt;/div&gt;" style="rounded=0;whiteSpace=wrap;html=1;" vertex="1" parent="1">
          <mxGeometry x="1156.25" y="1875" width="140" height="55" as="geometry" />
        </mxCell>
        <mxCell id="7Cxw7odDGHsC5qwyH94--267" value="" style="edgeStyle=orthogonalEdgeStyle;rounded=0;orthogonalLoop=1;jettySize=auto;html=1;" edge="1" parent="1" source="7Cxw7odDGHsC5qwyH94--256" target="7Cxw7odDGHsC5qwyH94--258">
          <mxGeometry relative="1" as="geometry" />
        </mxCell>
        <mxCell id="7Cxw7odDGHsC5qwyH94--256" value="รอ 50 วิ" style="rounded=0;whiteSpace=wrap;html=1;" vertex="1" parent="1">
          <mxGeometry x="1052.75" y="1715" width="120" height="60" as="geometry" />
        </mxCell>
        <mxCell id="7Cxw7odDGHsC5qwyH94--268" value="" style="edgeStyle=orthogonalEdgeStyle;rounded=0;orthogonalLoop=1;jettySize=auto;html=1;" edge="1" parent="1" source="7Cxw7odDGHsC5qwyH94--257" target="7Cxw7odDGHsC5qwyH94--255">
          <mxGeometry relative="1" as="geometry" />
        </mxCell>
        <mxCell id="7Cxw7odDGHsC5qwyH94--272" style="edgeStyle=orthogonalEdgeStyle;rounded=0;orthogonalLoop=1;jettySize=auto;html=1;entryX=0.5;entryY=0;entryDx=0;entryDy=0;" edge="1" parent="1" source="7Cxw7odDGHsC5qwyH94--257" target="7Cxw7odDGHsC5qwyH94--242">
          <mxGeometry relative="1" as="geometry" />
        </mxCell>
        <mxCell id="7Cxw7odDGHsC5qwyH94--257" value="ตรวจสอบ&lt;div&gt;ธนาบัตร&amp;nbsp;&lt;/div&gt;&lt;div&gt;ปลอมหรือไม่&lt;/div&gt;" style="rhombus;whiteSpace=wrap;html=1;" vertex="1" parent="1">
          <mxGeometry x="1322.5" y="1847.5" width="110" height="110" as="geometry" />
        </mxCell>
        <mxCell id="7Cxw7odDGHsC5qwyH94--271" style="edgeStyle=orthogonalEdgeStyle;rounded=0;orthogonalLoop=1;jettySize=auto;html=1;entryX=0.5;entryY=0;entryDx=0;entryDy=0;" edge="1" parent="1" source="7Cxw7odDGHsC5qwyH94--258" target="7Cxw7odDGHsC5qwyH94--259">
          <mxGeometry relative="1" as="geometry" />
        </mxCell>
        <mxCell id="7Cxw7odDGHsC5qwyH94--258" value="รายการถูกยกเลิก" style="shape=parallelogram;perimeter=parallelogramPerimeter;whiteSpace=wrap;html=1;fixedSize=1;" vertex="1" parent="1">
          <mxGeometry x="1038.5" y="1820" width="148.5" height="47.5" as="geometry" />
        </mxCell>
        <mxCell id="7Cxw7odDGHsC5qwyH94--259" value="" style="ellipse;whiteSpace=wrap;html=1;aspect=fixed;" vertex="1" parent="1">
          <mxGeometry x="1102.75" y="1892.5" width="20" height="20" as="geometry" />
        </mxCell>
        <mxCell id="7Cxw7odDGHsC5qwyH94--275" style="edgeStyle=orthogonalEdgeStyle;rounded=0;orthogonalLoop=1;jettySize=auto;html=1;entryX=0.5;entryY=0;entryDx=0;entryDy=0;" edge="1" parent="1" source="7Cxw7odDGHsC5qwyH94--273" target="7Cxw7odDGHsC5qwyH94--213">
          <mxGeometry relative="1" as="geometry" />
        </mxCell>
        <mxCell id="7Cxw7odDGHsC5qwyH94--273" value="ระบบคำนวนเงิน&lt;div&gt;ที่มีในตู้&lt;/div&gt;" style="shape=process;whiteSpace=wrap;html=1;backgroundOutline=1;" vertex="1" parent="1">
          <mxGeometry x="1141.25" y="1983.75" width="120" height="60" as="geometry" />
        </mxCell>
        <mxCell id="7Cxw7odDGHsC5qwyH94--276" value="&lt;p style=&quot;margin:0px;margin-top:4px;text-align:center;&quot;&gt;&lt;span style=&quot;font-family: Sarabun;&quot;&gt;ฟังก์ชัน&lt;/span&gt;&lt;/p&gt;&lt;hr size=&quot;1&quot; style=&quot;border-style:solid;&quot;&gt;&lt;div style=&quot;height:2px;&quot;&gt;&lt;/div&gt;" style="verticalAlign=top;align=left;overflow=fill;html=1;whiteSpace=wrap;fillColor=none;" vertex="1" parent="1">
          <mxGeometry x="1760" y="1478" width="600" height="762" as="geometry" />
        </mxCell>
        <mxCell id="7Cxw7odDGHsC5qwyH94--285" value="" style="edgeStyle=orthogonalEdgeStyle;rounded=0;orthogonalLoop=1;jettySize=auto;html=1;" edge="1" parent="1" source="7Cxw7odDGHsC5qwyH94--277" target="7Cxw7odDGHsC5qwyH94--284">
          <mxGeometry relative="1" as="geometry" />
        </mxCell>
        <mxCell id="7Cxw7odDGHsC5qwyH94--277" value="ระบบคำนวนเงิน&lt;div&gt;ที่มีในตู้&lt;/div&gt;" style="shape=process;whiteSpace=wrap;html=1;backgroundOutline=1;" vertex="1" parent="1">
          <mxGeometry x="1995" y="1530" width="120" height="60" as="geometry" />
        </mxCell>
        <mxCell id="7Cxw7odDGHsC5qwyH94--288" value="" style="edgeStyle=orthogonalEdgeStyle;rounded=0;orthogonalLoop=1;jettySize=auto;html=1;" edge="1" parent="1" source="7Cxw7odDGHsC5qwyH94--278" target="7Cxw7odDGHsC5qwyH94--280">
          <mxGeometry relative="1" as="geometry" />
        </mxCell>
        <mxCell id="7Cxw7odDGHsC5qwyH94--278" value="คำนวนเงินทอน" style="rounded=0;whiteSpace=wrap;html=1;" vertex="1" parent="1">
          <mxGeometry x="1995" y="1710" width="120" height="40" as="geometry" />
        </mxCell>
        <mxCell id="7Cxw7odDGHsC5qwyH94--295" style="edgeStyle=orthogonalEdgeStyle;rounded=0;orthogonalLoop=1;jettySize=auto;html=1;entryX=0.5;entryY=0;entryDx=0;entryDy=0;" edge="1" parent="1" source="7Cxw7odDGHsC5qwyH94--279" target="7Cxw7odDGHsC5qwyH94--281">
          <mxGeometry relative="1" as="geometry" />
        </mxCell>
        <mxCell id="7Cxw7odDGHsC5qwyH94--279" value="เงินทอน" style="shape=parallelogram;perimeter=parallelogramPerimeter;whiteSpace=wrap;html=1;fixedSize=1;" vertex="1" parent="1">
          <mxGeometry x="1995" y="1930" width="120" height="40" as="geometry" />
        </mxCell>
        <mxCell id="7Cxw7odDGHsC5qwyH94--293" value="" style="edgeStyle=orthogonalEdgeStyle;rounded=0;orthogonalLoop=1;jettySize=auto;html=1;" edge="1" parent="1" source="7Cxw7odDGHsC5qwyH94--280" target="7Cxw7odDGHsC5qwyH94--289">
          <mxGeometry relative="1" as="geometry" />
        </mxCell>
        <mxCell id="7Cxw7odDGHsC5qwyH94--280" value="คำนวนเงินเหรียญ/ธนบัตรทั้งหมดที่มีอยู่" style="rounded=0;whiteSpace=wrap;html=1;" vertex="1" parent="1">
          <mxGeometry x="1995" y="1770" width="120" height="40" as="geometry" />
        </mxCell>
        <mxCell id="7Cxw7odDGHsC5qwyH94--296" style="edgeStyle=orthogonalEdgeStyle;rounded=0;orthogonalLoop=1;jettySize=auto;html=1;entryX=0.5;entryY=0;entryDx=0;entryDy=0;" edge="1" parent="1" source="7Cxw7odDGHsC5qwyH94--281" target="7Cxw7odDGHsC5qwyH94--282">
          <mxGeometry relative="1" as="geometry" />
        </mxCell>
        <mxCell id="7Cxw7odDGHsC5qwyH94--281" value="สรุปยอดเงินที่เหลือในตู้&lt;div&gt;&quot;ตะพาบลอย&quot;&lt;/div&gt;" style="shape=parallelogram;perimeter=parallelogramPerimeter;whiteSpace=wrap;html=1;fixedSize=1;" vertex="1" parent="1">
          <mxGeometry x="1980" y="1990" width="150" height="50" as="geometry" />
        </mxCell>
        <mxCell id="7Cxw7odDGHsC5qwyH94--302" value="" style="edgeStyle=orthogonalEdgeStyle;rounded=0;orthogonalLoop=1;jettySize=auto;html=1;" edge="1" parent="1" source="7Cxw7odDGHsC5qwyH94--282" target="7Cxw7odDGHsC5qwyH94--301">
          <mxGeometry relative="1" as="geometry" />
        </mxCell>
        <mxCell id="7Cxw7odDGHsC5qwyH94--282" value="แสดงยอดเงินที่เหลือในตู้&lt;div&gt;เหรียญ/ธนบัตร&lt;/div&gt;" style="shape=parallelogram;perimeter=parallelogramPerimeter;whiteSpace=wrap;html=1;fixedSize=1;" vertex="1" parent="1">
          <mxGeometry x="1980" y="2065" width="150" height="50" as="geometry" />
        </mxCell>
        <mxCell id="7Cxw7odDGHsC5qwyH94--286" value="" style="edgeStyle=orthogonalEdgeStyle;rounded=0;orthogonalLoop=1;jettySize=auto;html=1;" edge="1" parent="1" source="7Cxw7odDGHsC5qwyH94--284" target="7Cxw7odDGHsC5qwyH94--278">
          <mxGeometry relative="1" as="geometry" />
        </mxCell>
        <mxCell id="7Cxw7odDGHsC5qwyH94--284" value="เงินที่มีในตู้" style="shape=process;whiteSpace=wrap;html=1;backgroundOutline=1;" vertex="1" parent="1">
          <mxGeometry x="1995" y="1620" width="120" height="60" as="geometry" />
        </mxCell>
        <mxCell id="7Cxw7odDGHsC5qwyH94--291" value="" style="edgeStyle=orthogonalEdgeStyle;rounded=0;orthogonalLoop=1;jettySize=auto;html=1;" edge="1" parent="1" source="7Cxw7odDGHsC5qwyH94--289" target="7Cxw7odDGHsC5qwyH94--279">
          <mxGeometry relative="1" as="geometry" />
        </mxCell>
        <mxCell id="7Cxw7odDGHsC5qwyH94--300" value="" style="edgeStyle=orthogonalEdgeStyle;rounded=0;orthogonalLoop=1;jettySize=auto;html=1;" edge="1" parent="1" source="7Cxw7odDGHsC5qwyH94--289" target="7Cxw7odDGHsC5qwyH94--299">
          <mxGeometry relative="1" as="geometry" />
        </mxCell>
        <mxCell id="7Cxw7odDGHsC5qwyH94--289" value="เงินที่มีพอทอน&lt;div&gt;หรือไม่&lt;/div&gt;" style="rhombus;whiteSpace=wrap;html=1;" vertex="1" parent="1">
          <mxGeometry x="1997.5" y="1830" width="115" height="80" as="geometry" />
        </mxCell>
        <mxCell id="7Cxw7odDGHsC5qwyH94--290" value="&lt;font face=&quot;Sarabun&quot;&gt;สิ้นสุด&lt;/font&gt;" style="ellipse;whiteSpace=wrap;html=1;" vertex="1" parent="1">
          <mxGeometry x="1990" y="2180" width="130" height="30" as="geometry" />
        </mxCell>
        <mxCell id="7Cxw7odDGHsC5qwyH94--304" style="edgeStyle=orthogonalEdgeStyle;rounded=0;orthogonalLoop=1;jettySize=auto;html=1;entryX=0;entryY=0.5;entryDx=0;entryDy=0;" edge="1" parent="1" source="7Cxw7odDGHsC5qwyH94--299" target="7Cxw7odDGHsC5qwyH94--301">
          <mxGeometry relative="1" as="geometry">
            <Array as="points">
              <mxPoint x="1870" y="2150" />
            </Array>
          </mxGeometry>
        </mxCell>
        <mxCell id="7Cxw7odDGHsC5qwyH94--299" value="ขอภัยในความไม่สะดวก&lt;div&gt;ไม่สามารถทอนเงินได้&lt;/div&gt;" style="shape=parallelogram;perimeter=parallelogramPerimeter;whiteSpace=wrap;html=1;fixedSize=1;" vertex="1" parent="1">
          <mxGeometry x="1800" y="1835" width="180" height="70" as="geometry" />
        </mxCell>
        <mxCell id="7Cxw7odDGHsC5qwyH94--303" value="" style="edgeStyle=orthogonalEdgeStyle;rounded=0;orthogonalLoop=1;jettySize=auto;html=1;" edge="1" parent="1" source="7Cxw7odDGHsC5qwyH94--301" target="7Cxw7odDGHsC5qwyH94--290">
          <mxGeometry relative="1" as="geometry" />
        </mxCell>
        <mxCell id="7Cxw7odDGHsC5qwyH94--301" value="" style="ellipse;whiteSpace=wrap;html=1;aspect=fixed;" vertex="1" parent="1">
          <mxGeometry x="2045" y="2140" width="20" height="20" as="geometry" />
        </mxCell>
        <mxCell id="7Cxw7odDGHsC5qwyH94--307" value="&lt;p style=&quot;margin:0px;margin-top:4px;text-align:center;&quot;&gt;&lt;span style=&quot;font-family: Sarabun;&quot;&gt;ฟังก์ชัน&lt;/span&gt;&lt;/p&gt;&lt;hr size=&quot;1&quot; style=&quot;border-style:solid;&quot;&gt;&lt;div style=&quot;height:2px;&quot;&gt;&lt;/div&gt;" style="verticalAlign=top;align=left;overflow=fill;html=1;whiteSpace=wrap;fillColor=none;movable=1;resizable=1;rotatable=1;deletable=1;editable=1;locked=0;connectable=1;" vertex="1" parent="1">
          <mxGeometry x="1670" y="70" width="2740" height="1320" as="geometry" />
        </mxCell>
        <mxCell id="7Cxw7odDGHsC5qwyH94--311" value="" style="edgeStyle=orthogonalEdgeStyle;rounded=0;orthogonalLoop=1;jettySize=auto;html=1;" edge="1" parent="1" source="7Cxw7odDGHsC5qwyH94--308" target="7Cxw7odDGHsC5qwyH94--229">
          <mxGeometry relative="1" as="geometry" />
        </mxCell>
        <mxCell id="7Cxw7odDGHsC5qwyH94--308" value="เงินที่มีในตู้" style="shape=process;whiteSpace=wrap;html=1;backgroundOutline=1;" vertex="1" parent="1">
          <mxGeometry x="1152.5" y="215" width="120" height="60" as="geometry" />
        </mxCell>
        <mxCell id="7Cxw7odDGHsC5qwyH94--321" value="" style="edgeStyle=orthogonalEdgeStyle;rounded=0;orthogonalLoop=1;jettySize=auto;html=1;" edge="1" parent="1" source="7Cxw7odDGHsC5qwyH94--316" target="7Cxw7odDGHsC5qwyH94--320">
          <mxGeometry relative="1" as="geometry" />
        </mxCell>
        <mxCell id="7Cxw7odDGHsC5qwyH94--316" value="แจ้งไปที่ผู้ไห้บริการ&lt;br&gt;&quot;เงินในตู้หมด&quot;" style="rounded=0;whiteSpace=wrap;html=1;" vertex="1" parent="1">
          <mxGeometry x="1338" y="580" width="120" height="60" as="geometry" />
        </mxCell>
        <mxCell id="7Cxw7odDGHsC5qwyH94--322" style="edgeStyle=orthogonalEdgeStyle;rounded=0;orthogonalLoop=1;jettySize=auto;html=1;entryX=1;entryY=0.5;entryDx=0;entryDy=0;" edge="1" parent="1" source="7Cxw7odDGHsC5qwyH94--320" target="7Cxw7odDGHsC5qwyH94--229">
          <mxGeometry relative="1" as="geometry">
            <Array as="points">
              <mxPoint x="1398.5" y="325" />
            </Array>
          </mxGeometry>
        </mxCell>
        <mxCell id="7Cxw7odDGHsC5qwyH94--320" value="ไม่สามารถ&lt;div&gt;ทอนเงินได้&lt;/div&gt;" style="shape=parallelogram;perimeter=parallelogramPerimeter;whiteSpace=wrap;html=1;fixedSize=1;" vertex="1" parent="1">
          <mxGeometry x="1338" y="485" width="120" height="60" as="geometry" />
        </mxCell>
        <mxCell id="7Cxw7odDGHsC5qwyH94--343" value="" style="edgeStyle=orthogonalEdgeStyle;rounded=0;orthogonalLoop=1;jettySize=auto;html=1;" edge="1" parent="1" source="7Cxw7odDGHsC5qwyH94--324" target="7Cxw7odDGHsC5qwyH94--342">
          <mxGeometry relative="1" as="geometry" />
        </mxCell>
        <mxCell id="7Cxw7odDGHsC5qwyH94--324" value="คลังสินค้า" style="shape=process;whiteSpace=wrap;html=1;backgroundOutline=1;" vertex="1" parent="1">
          <mxGeometry x="2985" y="115" width="120" height="60" as="geometry" />
        </mxCell>
        <mxCell id="7Cxw7odDGHsC5qwyH94--333" value="" style="edgeStyle=orthogonalEdgeStyle;rounded=0;orthogonalLoop=1;jettySize=auto;html=1;" edge="1" parent="1" source="7Cxw7odDGHsC5qwyH94--330" target="7Cxw7odDGHsC5qwyH94--332">
          <mxGeometry relative="1" as="geometry" />
        </mxCell>
        <mxCell id="7Cxw7odDGHsC5qwyH94--330" value="ตรวจสอบสินค้าคงคลัง&lt;br&gt;วัดหมดอายุ" style="rounded=0;whiteSpace=wrap;html=1;" vertex="1" parent="1">
          <mxGeometry x="1910" y="565" width="170" height="60" as="geometry" />
        </mxCell>
        <mxCell id="7Cxw7odDGHsC5qwyH94--337" value="" style="edgeStyle=orthogonalEdgeStyle;rounded=0;orthogonalLoop=1;jettySize=auto;html=1;" edge="1" parent="1" source="7Cxw7odDGHsC5qwyH94--332" target="7Cxw7odDGHsC5qwyH94--336">
          <mxGeometry relative="1" as="geometry" />
        </mxCell>
        <mxCell id="7Cxw7odDGHsC5qwyH94--410" value="" style="edgeStyle=orthogonalEdgeStyle;rounded=0;orthogonalLoop=1;jettySize=auto;html=1;" edge="1" parent="1" source="7Cxw7odDGHsC5qwyH94--332" target="7Cxw7odDGHsC5qwyH94--334">
          <mxGeometry relative="1" as="geometry" />
        </mxCell>
        <mxCell id="7Cxw7odDGHsC5qwyH94--332" value="สินค้าหมด&lt;br&gt;สินค้าหมดอายุหรือยัง" style="rhombus;whiteSpace=wrap;html=1;" vertex="1" parent="1">
          <mxGeometry x="1915" y="665" width="160" height="160" as="geometry" />
        </mxCell>
        <mxCell id="7Cxw7odDGHsC5qwyH94--466" style="edgeStyle=orthogonalEdgeStyle;rounded=0;orthogonalLoop=1;jettySize=auto;html=1;entryX=0.5;entryY=0;entryDx=0;entryDy=0;strokeColor=#CC0000;" edge="1" parent="1" source="7Cxw7odDGHsC5qwyH94--334" target="7Cxw7odDGHsC5qwyH94--465">
          <mxGeometry relative="1" as="geometry" />
        </mxCell>
        <mxCell id="7Cxw7odDGHsC5qwyH94--334" value="สิ้นค้า(ชิ้นนั้น)หมด" style="shape=parallelogram;perimeter=parallelogramPerimeter;whiteSpace=wrap;html=1;fixedSize=1;" vertex="1" parent="1">
          <mxGeometry x="1710" y="715" width="156" height="60" as="geometry" />
        </mxCell>
        <mxCell id="7Cxw7odDGHsC5qwyH94--474" style="edgeStyle=orthogonalEdgeStyle;rounded=0;orthogonalLoop=1;jettySize=auto;html=1;entryX=0;entryY=0.5;entryDx=0;entryDy=0;exitX=0.5;exitY=1;exitDx=0;exitDy=0;" edge="1" parent="1" source="bYl-1Xse578YIiAx0MEK-1" target="7Cxw7odDGHsC5qwyH94--475">
          <mxGeometry relative="1" as="geometry">
            <mxPoint x="3030" y="1140" as="targetPoint" />
            <Array as="points">
              <mxPoint x="1995" y="1005" />
              <mxPoint x="1995" y="1140" />
            </Array>
          </mxGeometry>
        </mxCell>
        <mxCell id="bYl-1Xse578YIiAx0MEK-2" value="" style="edgeStyle=none;curved=1;rounded=0;orthogonalLoop=1;jettySize=auto;html=1;fontSize=12;startSize=8;endSize=8;" edge="1" parent="1" source="7Cxw7odDGHsC5qwyH94--336" target="bYl-1Xse578YIiAx0MEK-1">
          <mxGeometry relative="1" as="geometry" />
        </mxCell>
        <mxCell id="7Cxw7odDGHsC5qwyH94--336" value="สามารถเลือกสินค้าได้" style="shape=parallelogram;perimeter=parallelogramPerimeter;whiteSpace=wrap;html=1;fixedSize=1;" vertex="1" parent="1">
          <mxGeometry x="1917" y="850" width="156" height="60" as="geometry" />
        </mxCell>
        <mxCell id="7Cxw7odDGHsC5qwyH94--378" style="edgeStyle=orthogonalEdgeStyle;rounded=0;orthogonalLoop=1;jettySize=auto;html=1;entryX=0.5;entryY=0;entryDx=0;entryDy=0;" edge="1" parent="1" source="7Cxw7odDGHsC5qwyH94--342" target="7Cxw7odDGHsC5qwyH94--377">
          <mxGeometry relative="1" as="geometry" />
        </mxCell>
        <mxCell id="7Cxw7odDGHsC5qwyH94--342" value="ประเภทสินค้า" style="rounded=0;whiteSpace=wrap;html=1;" vertex="1" parent="1">
          <mxGeometry x="2985" y="195" width="120" height="60" as="geometry" />
        </mxCell>
        <mxCell id="7Cxw7odDGHsC5qwyH94--381" value="" style="edgeStyle=orthogonalEdgeStyle;rounded=0;orthogonalLoop=1;jettySize=auto;html=1;" edge="1" parent="1" source="7Cxw7odDGHsC5qwyH94--344" target="7Cxw7odDGHsC5qwyH94--358">
          <mxGeometry relative="1" as="geometry" />
        </mxCell>
        <mxCell id="7Cxw7odDGHsC5qwyH94--344" value="ประเภทน้ำ&lt;div&gt;A&lt;/div&gt;" style="rounded=0;whiteSpace=wrap;html=1;" vertex="1" parent="1">
          <mxGeometry x="2638" y="255" width="120" height="60" as="geometry" />
        </mxCell>
        <mxCell id="7Cxw7odDGHsC5qwyH94--369" style="edgeStyle=orthogonalEdgeStyle;rounded=0;orthogonalLoop=1;jettySize=auto;html=1;entryX=0.5;entryY=0;entryDx=0;entryDy=0;" edge="1" parent="1" source="7Cxw7odDGHsC5qwyH94--345" target="7Cxw7odDGHsC5qwyH94--367">
          <mxGeometry relative="1" as="geometry" />
        </mxCell>
        <mxCell id="7Cxw7odDGHsC5qwyH94--345" value="ประเภทขนม&lt;div&gt;G&lt;/div&gt;" style="rounded=0;whiteSpace=wrap;html=1;" vertex="1" parent="1">
          <mxGeometry x="3310" y="255" width="120" height="60" as="geometry" />
        </mxCell>
        <mxCell id="7Cxw7odDGHsC5qwyH94--394" value="" style="edgeStyle=orthogonalEdgeStyle;rounded=0;orthogonalLoop=1;jettySize=auto;html=1;" edge="1" parent="1" source="7Cxw7odDGHsC5qwyH94--349" target="7Cxw7odDGHsC5qwyH94--386">
          <mxGeometry relative="1" as="geometry" />
        </mxCell>
        <mxCell id="7Cxw7odDGHsC5qwyH94--349" value="&lt;span style=&quot;font-family: Sarabun; font-size: 14px; text-align: left; text-wrap-mode: nowrap;&quot;&gt;จิ้นส้มหมก 15 บาท&lt;/span&gt;" style="rounded=0;whiteSpace=wrap;html=1;" vertex="1" parent="1">
          <mxGeometry x="3390" y="385" width="120" height="60" as="geometry" />
        </mxCell>
        <mxCell id="7Cxw7odDGHsC5qwyH94--395" value="" style="edgeStyle=orthogonalEdgeStyle;rounded=0;orthogonalLoop=1;jettySize=auto;html=1;" edge="1" parent="1" source="7Cxw7odDGHsC5qwyH94--350" target="7Cxw7odDGHsC5qwyH94--387">
          <mxGeometry relative="1" as="geometry" />
        </mxCell>
        <mxCell id="7Cxw7odDGHsC5qwyH94--350" value="&lt;span style=&quot;font-family: Sarabun; font-size: 14px; text-align: left; text-wrap-mode: nowrap;&quot;&gt;ถั่วแปบ 20 บาท&lt;/span&gt;" style="rounded=0;whiteSpace=wrap;html=1;" vertex="1" parent="1">
          <mxGeometry x="3757" y="385" width="120" height="60" as="geometry" />
        </mxCell>
        <mxCell id="7Cxw7odDGHsC5qwyH94--396" value="" style="edgeStyle=orthogonalEdgeStyle;rounded=0;orthogonalLoop=1;jettySize=auto;html=1;" edge="1" parent="1" source="7Cxw7odDGHsC5qwyH94--352" target="7Cxw7odDGHsC5qwyH94--389">
          <mxGeometry relative="1" as="geometry" />
        </mxCell>
        <mxCell id="7Cxw7odDGHsC5qwyH94--352" value="&lt;span style=&quot;font-family: Sarabun; font-size: 14px; text-align: left; text-wrap-mode: nowrap;&quot;&gt;เมล็ดทานตะวัน 13 บาท&lt;/span&gt;" style="rounded=0;whiteSpace=wrap;html=1;" vertex="1" parent="1">
          <mxGeometry x="4140" y="390" width="160" height="60" as="geometry" />
        </mxCell>
        <mxCell id="7Cxw7odDGHsC5qwyH94--391" value="" style="edgeStyle=orthogonalEdgeStyle;rounded=0;orthogonalLoop=1;jettySize=auto;html=1;" edge="1" parent="1" source="7Cxw7odDGHsC5qwyH94--353" target="7Cxw7odDGHsC5qwyH94--383">
          <mxGeometry relative="1" as="geometry" />
        </mxCell>
        <mxCell id="7Cxw7odDGHsC5qwyH94--353" value="&lt;span style=&quot;font-family: Sarabun; font-size: 14px; text-align: left; text-wrap-mode: nowrap;&quot;&gt;ลาเต้ หวานเจี๊ยบ 35 บาท&lt;/span&gt;" style="rounded=0;whiteSpace=wrap;html=1;" vertex="1" parent="1">
          <mxGeometry x="2275" y="405" width="160" height="60" as="geometry" />
        </mxCell>
        <mxCell id="7Cxw7odDGHsC5qwyH94--392" value="" style="edgeStyle=orthogonalEdgeStyle;rounded=0;orthogonalLoop=1;jettySize=auto;html=1;" edge="1" parent="1" source="7Cxw7odDGHsC5qwyH94--354" target="7Cxw7odDGHsC5qwyH94--384">
          <mxGeometry relative="1" as="geometry" />
        </mxCell>
        <mxCell id="7Cxw7odDGHsC5qwyH94--354" value="&lt;span style=&quot;font-family: Sarabun; font-size: 14px; text-align: left; text-wrap-mode: nowrap;&quot;&gt;อเมริกาโน่ 30 บาท&lt;/span&gt;" style="rounded=0;whiteSpace=wrap;html=1;" vertex="1" parent="1">
          <mxGeometry x="2655" y="400" width="120" height="60" as="geometry" />
        </mxCell>
        <mxCell id="7Cxw7odDGHsC5qwyH94--390" value="" style="edgeStyle=orthogonalEdgeStyle;rounded=0;orthogonalLoop=1;jettySize=auto;html=1;" edge="1" parent="1" source="7Cxw7odDGHsC5qwyH94--355" target="7Cxw7odDGHsC5qwyH94--382">
          <mxGeometry relative="1" as="geometry" />
        </mxCell>
        <mxCell id="7Cxw7odDGHsC5qwyH94--355" value="&lt;span style=&quot;font-family: Sarabun; font-size: 14px; text-align: left; text-wrap-mode: nowrap;&quot;&gt;น้ำเขียว กระป๋องละ 12 บาท&lt;/span&gt;" style="rounded=0;whiteSpace=wrap;html=1;" vertex="1" parent="1">
          <mxGeometry x="1910" y="400" width="170" height="60" as="geometry" />
        </mxCell>
        <mxCell id="7Cxw7odDGHsC5qwyH94--393" value="" style="edgeStyle=orthogonalEdgeStyle;rounded=0;orthogonalLoop=1;jettySize=auto;html=1;" edge="1" parent="1" source="7Cxw7odDGHsC5qwyH94--356" target="7Cxw7odDGHsC5qwyH94--385">
          <mxGeometry relative="1" as="geometry" />
        </mxCell>
        <mxCell id="7Cxw7odDGHsC5qwyH94--356" value="&lt;span style=&quot;font-family: Sarabun; font-size: 14px; text-align: left; text-wrap-mode: nowrap;&quot;&gt;โค้ก กระป๋องละ 10 บาท&lt;/span&gt;" style="rounded=0;whiteSpace=wrap;html=1;" vertex="1" parent="1">
          <mxGeometry x="2990" y="410" width="160" height="60" as="geometry" />
        </mxCell>
        <mxCell id="7Cxw7odDGHsC5qwyH94--365" style="edgeStyle=orthogonalEdgeStyle;rounded=0;orthogonalLoop=1;jettySize=auto;html=1;entryX=0.5;entryY=0;entryDx=0;entryDy=0;" edge="1" parent="1" source="7Cxw7odDGHsC5qwyH94--357" target="7Cxw7odDGHsC5qwyH94--355">
          <mxGeometry relative="1" as="geometry">
            <Array as="points">
              <mxPoint x="1995" y="380" />
            </Array>
          </mxGeometry>
        </mxCell>
        <mxCell id="7Cxw7odDGHsC5qwyH94--461" style="edgeStyle=orthogonalEdgeStyle;rounded=0;orthogonalLoop=1;jettySize=auto;html=1;entryX=0.5;entryY=0;entryDx=0;entryDy=0;" edge="1" parent="1" source="7Cxw7odDGHsC5qwyH94--357" target="7Cxw7odDGHsC5qwyH94--353">
          <mxGeometry relative="1" as="geometry" />
        </mxCell>
        <mxCell id="7Cxw7odDGHsC5qwyH94--357" value="" style="ellipse;whiteSpace=wrap;html=1;aspect=fixed;" vertex="1" parent="1">
          <mxGeometry x="2180" y="370" width="20" height="20" as="geometry" />
        </mxCell>
        <mxCell id="7Cxw7odDGHsC5qwyH94--361" style="edgeStyle=orthogonalEdgeStyle;rounded=0;orthogonalLoop=1;jettySize=auto;html=1;entryX=0.5;entryY=0;entryDx=0;entryDy=0;" edge="1" parent="1" source="7Cxw7odDGHsC5qwyH94--358" target="7Cxw7odDGHsC5qwyH94--359">
          <mxGeometry relative="1" as="geometry" />
        </mxCell>
        <mxCell id="7Cxw7odDGHsC5qwyH94--362" style="edgeStyle=orthogonalEdgeStyle;rounded=0;orthogonalLoop=1;jettySize=auto;html=1;entryX=0.5;entryY=0;entryDx=0;entryDy=0;" edge="1" parent="1" source="7Cxw7odDGHsC5qwyH94--358" target="7Cxw7odDGHsC5qwyH94--357">
          <mxGeometry relative="1" as="geometry" />
        </mxCell>
        <mxCell id="7Cxw7odDGHsC5qwyH94--358" value="" style="ellipse;whiteSpace=wrap;html=1;aspect=fixed;" vertex="1" parent="1">
          <mxGeometry x="2688" y="340" width="20" height="20" as="geometry" />
        </mxCell>
        <mxCell id="7Cxw7odDGHsC5qwyH94--363" style="edgeStyle=orthogonalEdgeStyle;rounded=0;orthogonalLoop=1;jettySize=auto;html=1;entryX=0.5;entryY=0;entryDx=0;entryDy=0;" edge="1" parent="1" source="7Cxw7odDGHsC5qwyH94--359" target="7Cxw7odDGHsC5qwyH94--354">
          <mxGeometry relative="1" as="geometry">
            <Array as="points">
              <mxPoint x="2715" y="380" />
            </Array>
          </mxGeometry>
        </mxCell>
        <mxCell id="7Cxw7odDGHsC5qwyH94--364" style="edgeStyle=orthogonalEdgeStyle;rounded=0;orthogonalLoop=1;jettySize=auto;html=1;entryX=0.5;entryY=0;entryDx=0;entryDy=0;" edge="1" parent="1" source="7Cxw7odDGHsC5qwyH94--359" target="7Cxw7odDGHsC5qwyH94--356">
          <mxGeometry relative="1" as="geometry">
            <Array as="points">
              <mxPoint x="3070" y="380" />
            </Array>
          </mxGeometry>
        </mxCell>
        <mxCell id="7Cxw7odDGHsC5qwyH94--359" value="" style="ellipse;whiteSpace=wrap;html=1;aspect=fixed;" vertex="1" parent="1">
          <mxGeometry x="2840" y="370" width="20" height="20" as="geometry" />
        </mxCell>
        <mxCell id="7Cxw7odDGHsC5qwyH94--374" style="edgeStyle=orthogonalEdgeStyle;rounded=0;orthogonalLoop=1;jettySize=auto;html=1;entryX=0.5;entryY=0;entryDx=0;entryDy=0;" edge="1" parent="1" source="7Cxw7odDGHsC5qwyH94--367" target="7Cxw7odDGHsC5qwyH94--352">
          <mxGeometry relative="1" as="geometry" />
        </mxCell>
        <mxCell id="7Cxw7odDGHsC5qwyH94--375" style="edgeStyle=orthogonalEdgeStyle;rounded=0;orthogonalLoop=1;jettySize=auto;html=1;entryX=0.5;entryY=0;entryDx=0;entryDy=0;" edge="1" parent="1" source="7Cxw7odDGHsC5qwyH94--367" target="7Cxw7odDGHsC5qwyH94--349">
          <mxGeometry relative="1" as="geometry" />
        </mxCell>
        <mxCell id="7Cxw7odDGHsC5qwyH94--376" value="" style="edgeStyle=orthogonalEdgeStyle;rounded=0;orthogonalLoop=1;jettySize=auto;html=1;" edge="1" parent="1" source="7Cxw7odDGHsC5qwyH94--367" target="7Cxw7odDGHsC5qwyH94--350">
          <mxGeometry relative="1" as="geometry" />
        </mxCell>
        <mxCell id="7Cxw7odDGHsC5qwyH94--367" value="" style="ellipse;whiteSpace=wrap;html=1;aspect=fixed;" vertex="1" parent="1">
          <mxGeometry x="3360" y="335" width="20" height="20" as="geometry" />
        </mxCell>
        <mxCell id="7Cxw7odDGHsC5qwyH94--379" style="edgeStyle=orthogonalEdgeStyle;rounded=0;orthogonalLoop=1;jettySize=auto;html=1;entryX=0;entryY=0.5;entryDx=0;entryDy=0;" edge="1" parent="1" source="7Cxw7odDGHsC5qwyH94--377" target="7Cxw7odDGHsC5qwyH94--345">
          <mxGeometry relative="1" as="geometry" />
        </mxCell>
        <mxCell id="7Cxw7odDGHsC5qwyH94--380" style="edgeStyle=orthogonalEdgeStyle;rounded=0;orthogonalLoop=1;jettySize=auto;html=1;entryX=1;entryY=0.5;entryDx=0;entryDy=0;" edge="1" parent="1" source="7Cxw7odDGHsC5qwyH94--377" target="7Cxw7odDGHsC5qwyH94--344">
          <mxGeometry relative="1" as="geometry" />
        </mxCell>
        <mxCell id="7Cxw7odDGHsC5qwyH94--377" value="" style="ellipse;whiteSpace=wrap;html=1;aspect=fixed;" vertex="1" parent="1">
          <mxGeometry x="3035" y="275" width="20" height="20" as="geometry" />
        </mxCell>
        <mxCell id="7Cxw7odDGHsC5qwyH94--397" value="" style="edgeStyle=orthogonalEdgeStyle;rounded=0;orthogonalLoop=1;jettySize=auto;html=1;" edge="1" parent="1" source="7Cxw7odDGHsC5qwyH94--382" target="7Cxw7odDGHsC5qwyH94--330">
          <mxGeometry relative="1" as="geometry" />
        </mxCell>
        <mxCell id="7Cxw7odDGHsC5qwyH94--382" value="น้ำเขียว = A1" style="rounded=0;whiteSpace=wrap;html=1;" vertex="1" parent="1">
          <mxGeometry x="1935" y="495" width="120" height="40" as="geometry" />
        </mxCell>
        <mxCell id="7Cxw7odDGHsC5qwyH94--460" value="" style="edgeStyle=orthogonalEdgeStyle;rounded=0;orthogonalLoop=1;jettySize=auto;html=1;" edge="1" parent="1" source="7Cxw7odDGHsC5qwyH94--383" target="7Cxw7odDGHsC5qwyH94--398">
          <mxGeometry relative="1" as="geometry" />
        </mxCell>
        <mxCell id="7Cxw7odDGHsC5qwyH94--383" value="&lt;span style=&quot;font-family: Sarabun; font-size: 14px; text-align: left; text-wrap-mode: nowrap;&quot;&gt;ลาเต้&lt;/span&gt;&amp;nbsp;= A2" style="rounded=0;whiteSpace=wrap;html=1;" vertex="1" parent="1">
          <mxGeometry x="2295" y="505" width="120" height="40" as="geometry" />
        </mxCell>
        <mxCell id="7Cxw7odDGHsC5qwyH94--418" style="edgeStyle=orthogonalEdgeStyle;rounded=0;orthogonalLoop=1;jettySize=auto;html=1;entryX=0.5;entryY=0;entryDx=0;entryDy=0;" edge="1" parent="1" source="7Cxw7odDGHsC5qwyH94--384" target="7Cxw7odDGHsC5qwyH94--401">
          <mxGeometry relative="1" as="geometry" />
        </mxCell>
        <mxCell id="7Cxw7odDGHsC5qwyH94--384" value="&lt;span style=&quot;font-family: Sarabun; font-size: 14px; text-align: left; text-wrap-mode: nowrap;&quot;&gt;อเมริกาโน่&amp;nbsp;&lt;/span&gt;= A3" style="rounded=0;whiteSpace=wrap;html=1;" vertex="1" parent="1">
          <mxGeometry x="2655" y="495" width="120" height="40" as="geometry" />
        </mxCell>
        <mxCell id="7Cxw7odDGHsC5qwyH94--421" style="edgeStyle=orthogonalEdgeStyle;rounded=0;orthogonalLoop=1;jettySize=auto;html=1;entryX=0.5;entryY=0;entryDx=0;entryDy=0;" edge="1" parent="1" source="7Cxw7odDGHsC5qwyH94--385" target="7Cxw7odDGHsC5qwyH94--404">
          <mxGeometry relative="1" as="geometry" />
        </mxCell>
        <mxCell id="7Cxw7odDGHsC5qwyH94--385" value="&lt;span style=&quot;font-family: Sarabun; font-size: 14px; text-align: left; text-wrap-mode: nowrap;&quot;&gt;โค้ก&lt;/span&gt;&amp;nbsp;= A4" style="rounded=0;whiteSpace=wrap;html=1;" vertex="1" parent="1">
          <mxGeometry x="3010" y="505" width="120" height="40" as="geometry" />
        </mxCell>
        <mxCell id="7Cxw7odDGHsC5qwyH94--448" value="" style="edgeStyle=orthogonalEdgeStyle;rounded=0;orthogonalLoop=1;jettySize=auto;html=1;" edge="1" parent="1" source="7Cxw7odDGHsC5qwyH94--386" target="7Cxw7odDGHsC5qwyH94--436">
          <mxGeometry relative="1" as="geometry" />
        </mxCell>
        <mxCell id="7Cxw7odDGHsC5qwyH94--386" value="&lt;span style=&quot;font-family: Sarabun; font-size: 14px; text-align: left; text-wrap-mode: nowrap;&quot;&gt;จิ้นส้มหมก&amp;nbsp;&lt;/span&gt;= G1" style="rounded=0;whiteSpace=wrap;html=1;" vertex="1" parent="1">
          <mxGeometry x="3390" y="485" width="120" height="40" as="geometry" />
        </mxCell>
        <mxCell id="7Cxw7odDGHsC5qwyH94--449" value="" style="edgeStyle=orthogonalEdgeStyle;rounded=0;orthogonalLoop=1;jettySize=auto;html=1;" edge="1" parent="1" source="7Cxw7odDGHsC5qwyH94--387" target="7Cxw7odDGHsC5qwyH94--440">
          <mxGeometry relative="1" as="geometry" />
        </mxCell>
        <mxCell id="7Cxw7odDGHsC5qwyH94--387" value="&lt;span style=&quot;font-family: Sarabun; font-size: 14px; text-align: left; text-wrap-mode: nowrap;&quot;&gt;ถั่วแปบ&amp;nbsp;&lt;/span&gt;= G2" style="rounded=0;whiteSpace=wrap;html=1;" vertex="1" parent="1">
          <mxGeometry x="3757" y="485" width="120" height="40" as="geometry" />
        </mxCell>
        <mxCell id="7Cxw7odDGHsC5qwyH94--450" value="" style="edgeStyle=orthogonalEdgeStyle;rounded=0;orthogonalLoop=1;jettySize=auto;html=1;" edge="1" parent="1" source="7Cxw7odDGHsC5qwyH94--389" target="7Cxw7odDGHsC5qwyH94--444">
          <mxGeometry relative="1" as="geometry" />
        </mxCell>
        <mxCell id="7Cxw7odDGHsC5qwyH94--389" value="&lt;span style=&quot;font-family: Sarabun; font-size: 14px; text-align: left; text-wrap-mode: nowrap;&quot;&gt;เมล็ดทานตะวัน&amp;nbsp;&lt;/span&gt;= G3" style="rounded=0;whiteSpace=wrap;html=1;" vertex="1" parent="1">
          <mxGeometry x="4160" y="490" width="120" height="40" as="geometry" />
        </mxCell>
        <mxCell id="7Cxw7odDGHsC5qwyH94--414" value="" style="edgeStyle=orthogonalEdgeStyle;rounded=0;orthogonalLoop=1;jettySize=auto;html=1;" edge="1" parent="1" source="7Cxw7odDGHsC5qwyH94--398" target="7Cxw7odDGHsC5qwyH94--399">
          <mxGeometry relative="1" as="geometry" />
        </mxCell>
        <mxCell id="7Cxw7odDGHsC5qwyH94--398" value="ตรวจสอบสินค้าคงคลัง&lt;br&gt;วัดหมดอายุ" style="rounded=0;whiteSpace=wrap;html=1;" vertex="1" parent="1">
          <mxGeometry x="2270" y="570" width="170" height="60" as="geometry" />
        </mxCell>
        <mxCell id="7Cxw7odDGHsC5qwyH94--412" value="" style="edgeStyle=orthogonalEdgeStyle;rounded=0;orthogonalLoop=1;jettySize=auto;html=1;" edge="1" parent="1" source="7Cxw7odDGHsC5qwyH94--399" target="7Cxw7odDGHsC5qwyH94--411">
          <mxGeometry relative="1" as="geometry" />
        </mxCell>
        <mxCell id="7Cxw7odDGHsC5qwyH94--415" value="" style="edgeStyle=orthogonalEdgeStyle;rounded=0;orthogonalLoop=1;jettySize=auto;html=1;" edge="1" parent="1" source="7Cxw7odDGHsC5qwyH94--399" target="7Cxw7odDGHsC5qwyH94--400">
          <mxGeometry relative="1" as="geometry" />
        </mxCell>
        <mxCell id="7Cxw7odDGHsC5qwyH94--399" value="สินค้าหมด&lt;br&gt;สินค้าหมดอายุหรือยัง" style="rhombus;whiteSpace=wrap;html=1;" vertex="1" parent="1">
          <mxGeometry x="2275" y="670" width="160" height="160" as="geometry" />
        </mxCell>
        <mxCell id="7Cxw7odDGHsC5qwyH94--476" style="edgeStyle=orthogonalEdgeStyle;rounded=0;orthogonalLoop=1;jettySize=auto;html=1;entryX=0;entryY=0.5;entryDx=0;entryDy=0;exitX=0.5;exitY=0;exitDx=0;exitDy=0;" edge="1" parent="1" source="bYl-1Xse578YIiAx0MEK-3" target="7Cxw7odDGHsC5qwyH94--475">
          <mxGeometry relative="1" as="geometry">
            <Array as="points">
              <mxPoint x="2355" y="1035" />
              <mxPoint x="2355" y="1140" />
            </Array>
          </mxGeometry>
        </mxCell>
        <mxCell id="bYl-1Xse578YIiAx0MEK-4" value="" style="edgeStyle=none;curved=1;rounded=0;orthogonalLoop=1;jettySize=auto;html=1;fontSize=12;startSize=8;endSize=8;" edge="1" parent="1" source="7Cxw7odDGHsC5qwyH94--400" target="bYl-1Xse578YIiAx0MEK-3">
          <mxGeometry relative="1" as="geometry" />
        </mxCell>
        <mxCell id="7Cxw7odDGHsC5qwyH94--400" value="สามารถเลือกสินค้าได้" style="shape=parallelogram;perimeter=parallelogramPerimeter;whiteSpace=wrap;html=1;fixedSize=1;" vertex="1" parent="1">
          <mxGeometry x="2277" y="855" width="156" height="60" as="geometry" />
        </mxCell>
        <mxCell id="7Cxw7odDGHsC5qwyH94--419" value="" style="edgeStyle=orthogonalEdgeStyle;rounded=0;orthogonalLoop=1;jettySize=auto;html=1;" edge="1" parent="1" source="7Cxw7odDGHsC5qwyH94--401" target="7Cxw7odDGHsC5qwyH94--402">
          <mxGeometry relative="1" as="geometry" />
        </mxCell>
        <mxCell id="7Cxw7odDGHsC5qwyH94--401" value="ตรวจสอบสินค้าคงคลัง&lt;br&gt;วัดหมดอายุ" style="rounded=0;whiteSpace=wrap;html=1;" vertex="1" parent="1">
          <mxGeometry x="2630" y="570" width="170" height="60" as="geometry" />
        </mxCell>
        <mxCell id="7Cxw7odDGHsC5qwyH94--417" value="" style="edgeStyle=orthogonalEdgeStyle;rounded=0;orthogonalLoop=1;jettySize=auto;html=1;" edge="1" parent="1" source="7Cxw7odDGHsC5qwyH94--402" target="7Cxw7odDGHsC5qwyH94--416">
          <mxGeometry relative="1" as="geometry" />
        </mxCell>
        <mxCell id="7Cxw7odDGHsC5qwyH94--420" value="" style="edgeStyle=orthogonalEdgeStyle;rounded=0;orthogonalLoop=1;jettySize=auto;html=1;" edge="1" parent="1" source="7Cxw7odDGHsC5qwyH94--402" target="7Cxw7odDGHsC5qwyH94--403">
          <mxGeometry relative="1" as="geometry" />
        </mxCell>
        <mxCell id="7Cxw7odDGHsC5qwyH94--402" value="สินค้าหมด&lt;br&gt;สินค้าหมดอายุหรือยัง" style="rhombus;whiteSpace=wrap;html=1;" vertex="1" parent="1">
          <mxGeometry x="2635" y="670" width="160" height="160" as="geometry" />
        </mxCell>
        <mxCell id="7Cxw7odDGHsC5qwyH94--477" style="edgeStyle=orthogonalEdgeStyle;rounded=0;orthogonalLoop=1;jettySize=auto;html=1;entryX=0;entryY=0.5;entryDx=0;entryDy=0;exitX=0.5;exitY=0;exitDx=0;exitDy=0;" edge="1" parent="1" source="bYl-1Xse578YIiAx0MEK-5" target="7Cxw7odDGHsC5qwyH94--475">
          <mxGeometry relative="1" as="geometry">
            <Array as="points">
              <mxPoint x="2720" y="1030" />
              <mxPoint x="2720" y="1140" />
            </Array>
          </mxGeometry>
        </mxCell>
        <mxCell id="bYl-1Xse578YIiAx0MEK-6" value="" style="edgeStyle=none;curved=1;rounded=0;orthogonalLoop=1;jettySize=auto;html=1;fontSize=12;startSize=8;endSize=8;" edge="1" parent="1" source="7Cxw7odDGHsC5qwyH94--403" target="bYl-1Xse578YIiAx0MEK-5">
          <mxGeometry relative="1" as="geometry" />
        </mxCell>
        <mxCell id="7Cxw7odDGHsC5qwyH94--403" value="สามารถเลือกสินค้าได้" style="shape=parallelogram;perimeter=parallelogramPerimeter;whiteSpace=wrap;html=1;fixedSize=1;" vertex="1" parent="1">
          <mxGeometry x="2637" y="855" width="156" height="60" as="geometry" />
        </mxCell>
        <mxCell id="7Cxw7odDGHsC5qwyH94--422" value="" style="edgeStyle=orthogonalEdgeStyle;rounded=0;orthogonalLoop=1;jettySize=auto;html=1;" edge="1" parent="1" source="7Cxw7odDGHsC5qwyH94--404" target="7Cxw7odDGHsC5qwyH94--405">
          <mxGeometry relative="1" as="geometry" />
        </mxCell>
        <mxCell id="7Cxw7odDGHsC5qwyH94--404" value="ตรวจสอบสินค้าคงคลัง&lt;br&gt;วัดหมดอายุ" style="rounded=0;whiteSpace=wrap;html=1;" vertex="1" parent="1">
          <mxGeometry x="2990" y="580" width="170" height="60" as="geometry" />
        </mxCell>
        <mxCell id="7Cxw7odDGHsC5qwyH94--423" value="" style="edgeStyle=orthogonalEdgeStyle;rounded=0;orthogonalLoop=1;jettySize=auto;html=1;" edge="1" parent="1" source="7Cxw7odDGHsC5qwyH94--405" target="7Cxw7odDGHsC5qwyH94--406">
          <mxGeometry relative="1" as="geometry" />
        </mxCell>
        <mxCell id="7Cxw7odDGHsC5qwyH94--425" value="" style="edgeStyle=orthogonalEdgeStyle;rounded=0;orthogonalLoop=1;jettySize=auto;html=1;" edge="1" parent="1" source="7Cxw7odDGHsC5qwyH94--405" target="7Cxw7odDGHsC5qwyH94--424">
          <mxGeometry relative="1" as="geometry" />
        </mxCell>
        <mxCell id="7Cxw7odDGHsC5qwyH94--405" value="สินค้าหมด&lt;br&gt;สินค้าหมดอายุหรือยัง" style="rhombus;whiteSpace=wrap;html=1;" vertex="1" parent="1">
          <mxGeometry x="2995" y="680" width="160" height="160" as="geometry" />
        </mxCell>
        <mxCell id="7Cxw7odDGHsC5qwyH94--478" style="edgeStyle=orthogonalEdgeStyle;rounded=0;orthogonalLoop=1;jettySize=auto;html=1;entryX=1;entryY=0.5;entryDx=0;entryDy=0;exitX=0.5;exitY=0;exitDx=0;exitDy=0;" edge="1" parent="1" source="bYl-1Xse578YIiAx0MEK-7" target="7Cxw7odDGHsC5qwyH94--475">
          <mxGeometry relative="1" as="geometry" />
        </mxCell>
        <mxCell id="bYl-1Xse578YIiAx0MEK-8" value="" style="edgeStyle=none;curved=1;rounded=0;orthogonalLoop=1;jettySize=auto;html=1;fontSize=12;startSize=8;endSize=8;" edge="1" parent="1" source="7Cxw7odDGHsC5qwyH94--406" target="bYl-1Xse578YIiAx0MEK-7">
          <mxGeometry relative="1" as="geometry" />
        </mxCell>
        <mxCell id="7Cxw7odDGHsC5qwyH94--406" value="สามารถเลือกสินค้าได้" style="shape=parallelogram;perimeter=parallelogramPerimeter;whiteSpace=wrap;html=1;fixedSize=1;" vertex="1" parent="1">
          <mxGeometry x="2997" y="865" width="156" height="60" as="geometry" />
        </mxCell>
        <mxCell id="7Cxw7odDGHsC5qwyH94--467" style="edgeStyle=orthogonalEdgeStyle;rounded=0;orthogonalLoop=1;jettySize=auto;html=1;entryX=1;entryY=0.5;entryDx=0;entryDy=0;fillColor=#CC0000;strokeColor=#CC0000;" edge="1" parent="1" source="7Cxw7odDGHsC5qwyH94--411" target="7Cxw7odDGHsC5qwyH94--465">
          <mxGeometry relative="1" as="geometry">
            <Array as="points">
              <mxPoint x="2178" y="1090" />
            </Array>
          </mxGeometry>
        </mxCell>
        <mxCell id="7Cxw7odDGHsC5qwyH94--411" value="สิ้นค้า(ชิ้นนั้น)หมด" style="shape=parallelogram;perimeter=parallelogramPerimeter;whiteSpace=wrap;html=1;fixedSize=1;" vertex="1" parent="1">
          <mxGeometry x="2100" y="720" width="156" height="60" as="geometry" />
        </mxCell>
        <mxCell id="7Cxw7odDGHsC5qwyH94--468" style="edgeStyle=orthogonalEdgeStyle;rounded=0;orthogonalLoop=1;jettySize=auto;html=1;entryX=1;entryY=0.5;entryDx=0;entryDy=0;strokeColor=#CC0000;" edge="1" parent="1" source="7Cxw7odDGHsC5qwyH94--416" target="7Cxw7odDGHsC5qwyH94--465">
          <mxGeometry relative="1" as="geometry">
            <Array as="points">
              <mxPoint x="2538" y="1090" />
            </Array>
          </mxGeometry>
        </mxCell>
        <mxCell id="7Cxw7odDGHsC5qwyH94--416" value="สิ้นค้า(ชิ้นนั้น)หมด" style="shape=parallelogram;perimeter=parallelogramPerimeter;whiteSpace=wrap;html=1;fixedSize=1;" vertex="1" parent="1">
          <mxGeometry x="2460" y="720" width="156" height="60" as="geometry" />
        </mxCell>
        <mxCell id="7Cxw7odDGHsC5qwyH94--469" style="edgeStyle=orthogonalEdgeStyle;rounded=0;orthogonalLoop=1;jettySize=auto;html=1;entryX=1;entryY=0.5;entryDx=0;entryDy=0;strokeColor=#CC0000;" edge="1" parent="1" source="7Cxw7odDGHsC5qwyH94--424" target="7Cxw7odDGHsC5qwyH94--465">
          <mxGeometry relative="1" as="geometry">
            <Array as="points">
              <mxPoint x="2898" y="1090" />
            </Array>
          </mxGeometry>
        </mxCell>
        <mxCell id="7Cxw7odDGHsC5qwyH94--424" value="สิ้นค้า(ชิ้นนั้น)หมด" style="shape=parallelogram;perimeter=parallelogramPerimeter;whiteSpace=wrap;html=1;fixedSize=1;" vertex="1" parent="1">
          <mxGeometry x="2820" y="730" width="156" height="60" as="geometry" />
        </mxCell>
        <mxCell id="7Cxw7odDGHsC5qwyH94--457" value="" style="edgeStyle=orthogonalEdgeStyle;rounded=0;orthogonalLoop=1;jettySize=auto;html=1;" edge="1" parent="1" source="7Cxw7odDGHsC5qwyH94--436" target="7Cxw7odDGHsC5qwyH94--437">
          <mxGeometry relative="1" as="geometry" />
        </mxCell>
        <mxCell id="7Cxw7odDGHsC5qwyH94--436" value="ตรวจสอบสินค้าคงคลัง&lt;br&gt;วัดหมดอายุ" style="rounded=0;whiteSpace=wrap;html=1;" vertex="1" parent="1">
          <mxGeometry x="3365" y="577.5" width="170" height="60" as="geometry" />
        </mxCell>
        <mxCell id="7Cxw7odDGHsC5qwyH94--458" value="" style="edgeStyle=orthogonalEdgeStyle;rounded=0;orthogonalLoop=1;jettySize=auto;html=1;" edge="1" parent="1" source="7Cxw7odDGHsC5qwyH94--437" target="7Cxw7odDGHsC5qwyH94--438">
          <mxGeometry relative="1" as="geometry" />
        </mxCell>
        <mxCell id="7Cxw7odDGHsC5qwyH94--459" value="" style="edgeStyle=orthogonalEdgeStyle;rounded=0;orthogonalLoop=1;jettySize=auto;html=1;" edge="1" parent="1" source="7Cxw7odDGHsC5qwyH94--437" target="7Cxw7odDGHsC5qwyH94--439">
          <mxGeometry relative="1" as="geometry" />
        </mxCell>
        <mxCell id="7Cxw7odDGHsC5qwyH94--437" value="สินค้าหมด&lt;br&gt;สินค้าหมดอายุหรือยัง" style="rhombus;whiteSpace=wrap;html=1;" vertex="1" parent="1">
          <mxGeometry x="3370" y="677.5" width="160" height="160" as="geometry" />
        </mxCell>
        <mxCell id="7Cxw7odDGHsC5qwyH94--479" style="edgeStyle=orthogonalEdgeStyle;rounded=0;orthogonalLoop=1;jettySize=auto;html=1;entryX=1;entryY=0.5;entryDx=0;entryDy=0;exitX=0.5;exitY=0;exitDx=0;exitDy=0;" edge="1" parent="1" source="bYl-1Xse578YIiAx0MEK-9" target="7Cxw7odDGHsC5qwyH94--475">
          <mxGeometry relative="1" as="geometry">
            <Array as="points">
              <mxPoint x="3450" y="990" />
              <mxPoint x="3450" y="1140" />
            </Array>
          </mxGeometry>
        </mxCell>
        <mxCell id="bYl-1Xse578YIiAx0MEK-10" value="" style="edgeStyle=none;curved=1;rounded=0;orthogonalLoop=1;jettySize=auto;html=1;fontSize=12;startSize=8;endSize=8;" edge="1" parent="1" source="7Cxw7odDGHsC5qwyH94--438" target="bYl-1Xse578YIiAx0MEK-9">
          <mxGeometry relative="1" as="geometry" />
        </mxCell>
        <mxCell id="7Cxw7odDGHsC5qwyH94--438" value="สามารถเลือกสินค้าได้" style="shape=parallelogram;perimeter=parallelogramPerimeter;whiteSpace=wrap;html=1;fixedSize=1;" vertex="1" parent="1">
          <mxGeometry x="3372" y="862.5" width="156" height="60" as="geometry" />
        </mxCell>
        <mxCell id="7Cxw7odDGHsC5qwyH94--470" style="edgeStyle=orthogonalEdgeStyle;rounded=0;orthogonalLoop=1;jettySize=auto;html=1;entryX=1;entryY=0.5;entryDx=0;entryDy=0;strokeColor=#CC0000;" edge="1" parent="1" source="7Cxw7odDGHsC5qwyH94--439" target="7Cxw7odDGHsC5qwyH94--465">
          <mxGeometry relative="1" as="geometry">
            <mxPoint x="3278.000000000001" y="1100" as="targetPoint" />
            <Array as="points">
              <mxPoint x="3278" y="1090" />
            </Array>
          </mxGeometry>
        </mxCell>
        <mxCell id="7Cxw7odDGHsC5qwyH94--439" value="สิ้นค้า(ชิ้นนั้น)หมด" style="shape=parallelogram;perimeter=parallelogramPerimeter;whiteSpace=wrap;html=1;fixedSize=1;" vertex="1" parent="1">
          <mxGeometry x="3200" y="727.5" width="156" height="60" as="geometry" />
        </mxCell>
        <mxCell id="7Cxw7odDGHsC5qwyH94--454" value="" style="edgeStyle=orthogonalEdgeStyle;rounded=0;orthogonalLoop=1;jettySize=auto;html=1;" edge="1" parent="1" source="7Cxw7odDGHsC5qwyH94--440" target="7Cxw7odDGHsC5qwyH94--441">
          <mxGeometry relative="1" as="geometry" />
        </mxCell>
        <mxCell id="7Cxw7odDGHsC5qwyH94--440" value="ตรวจสอบสินค้าคงคลัง&lt;br&gt;วัดหมดอายุ" style="rounded=0;whiteSpace=wrap;html=1;" vertex="1" parent="1">
          <mxGeometry x="3732" y="580" width="170" height="60" as="geometry" />
        </mxCell>
        <mxCell id="7Cxw7odDGHsC5qwyH94--455" value="" style="edgeStyle=orthogonalEdgeStyle;rounded=0;orthogonalLoop=1;jettySize=auto;html=1;" edge="1" parent="1" source="7Cxw7odDGHsC5qwyH94--441" target="7Cxw7odDGHsC5qwyH94--442">
          <mxGeometry relative="1" as="geometry" />
        </mxCell>
        <mxCell id="7Cxw7odDGHsC5qwyH94--456" value="" style="edgeStyle=orthogonalEdgeStyle;rounded=0;orthogonalLoop=1;jettySize=auto;html=1;" edge="1" parent="1" source="7Cxw7odDGHsC5qwyH94--441" target="7Cxw7odDGHsC5qwyH94--443">
          <mxGeometry relative="1" as="geometry" />
        </mxCell>
        <mxCell id="7Cxw7odDGHsC5qwyH94--441" value="สินค้าหมด&lt;br&gt;สินค้าหมดอายุหรือยัง" style="rhombus;whiteSpace=wrap;html=1;" vertex="1" parent="1">
          <mxGeometry x="3737" y="677.5" width="160" height="160" as="geometry" />
        </mxCell>
        <mxCell id="7Cxw7odDGHsC5qwyH94--480" style="edgeStyle=orthogonalEdgeStyle;rounded=0;orthogonalLoop=1;jettySize=auto;html=1;entryX=1;entryY=0.5;entryDx=0;entryDy=0;exitX=0.5;exitY=0;exitDx=0;exitDy=0;" edge="1" parent="1" source="bYl-1Xse578YIiAx0MEK-11" target="7Cxw7odDGHsC5qwyH94--475">
          <mxGeometry relative="1" as="geometry">
            <Array as="points">
              <mxPoint x="3817" y="1020" />
              <mxPoint x="3817" y="1140" />
            </Array>
          </mxGeometry>
        </mxCell>
        <mxCell id="bYl-1Xse578YIiAx0MEK-12" value="" style="edgeStyle=none;curved=1;rounded=0;orthogonalLoop=1;jettySize=auto;html=1;fontSize=12;startSize=8;endSize=8;" edge="1" parent="1" source="7Cxw7odDGHsC5qwyH94--442" target="bYl-1Xse578YIiAx0MEK-11">
          <mxGeometry relative="1" as="geometry" />
        </mxCell>
        <mxCell id="7Cxw7odDGHsC5qwyH94--442" value="สามารถเลือกสินค้าได้" style="shape=parallelogram;perimeter=parallelogramPerimeter;whiteSpace=wrap;html=1;fixedSize=1;" vertex="1" parent="1">
          <mxGeometry x="3739" y="865" width="156" height="60" as="geometry" />
        </mxCell>
        <mxCell id="7Cxw7odDGHsC5qwyH94--471" style="edgeStyle=orthogonalEdgeStyle;rounded=0;orthogonalLoop=1;jettySize=auto;html=1;entryX=1;entryY=0.5;entryDx=0;entryDy=0;strokeColor=#CC0000;" edge="1" parent="1" source="7Cxw7odDGHsC5qwyH94--443" target="7Cxw7odDGHsC5qwyH94--465">
          <mxGeometry relative="1" as="geometry">
            <mxPoint x="1850" y="1190" as="targetPoint" />
            <Array as="points">
              <mxPoint x="3638" y="1090" />
            </Array>
          </mxGeometry>
        </mxCell>
        <mxCell id="7Cxw7odDGHsC5qwyH94--443" value="สิ้นค้า(ชิ้นนั้น)หมด" style="shape=parallelogram;perimeter=parallelogramPerimeter;whiteSpace=wrap;html=1;fixedSize=1;" vertex="1" parent="1">
          <mxGeometry x="3560" y="727.5" width="156" height="60" as="geometry" />
        </mxCell>
        <mxCell id="7Cxw7odDGHsC5qwyH94--451" value="" style="edgeStyle=orthogonalEdgeStyle;rounded=0;orthogonalLoop=1;jettySize=auto;html=1;" edge="1" parent="1" source="7Cxw7odDGHsC5qwyH94--444" target="7Cxw7odDGHsC5qwyH94--445">
          <mxGeometry relative="1" as="geometry" />
        </mxCell>
        <mxCell id="7Cxw7odDGHsC5qwyH94--444" value="ตรวจสอบสินค้าคงคลัง&lt;br&gt;วัดหมดอายุ" style="rounded=0;whiteSpace=wrap;html=1;" vertex="1" parent="1">
          <mxGeometry x="4135" y="577.5" width="170" height="60" as="geometry" />
        </mxCell>
        <mxCell id="7Cxw7odDGHsC5qwyH94--452" value="" style="edgeStyle=orthogonalEdgeStyle;rounded=0;orthogonalLoop=1;jettySize=auto;html=1;" edge="1" parent="1" source="7Cxw7odDGHsC5qwyH94--445" target="7Cxw7odDGHsC5qwyH94--446">
          <mxGeometry relative="1" as="geometry" />
        </mxCell>
        <mxCell id="7Cxw7odDGHsC5qwyH94--453" value="" style="edgeStyle=orthogonalEdgeStyle;rounded=0;orthogonalLoop=1;jettySize=auto;html=1;" edge="1" parent="1" source="7Cxw7odDGHsC5qwyH94--445" target="7Cxw7odDGHsC5qwyH94--447">
          <mxGeometry relative="1" as="geometry" />
        </mxCell>
        <mxCell id="7Cxw7odDGHsC5qwyH94--445" value="สินค้าหมด&lt;br&gt;สินค้าหมดอายุหรือยัง" style="rhombus;whiteSpace=wrap;html=1;" vertex="1" parent="1">
          <mxGeometry x="4140" y="677.5" width="160" height="160" as="geometry" />
        </mxCell>
        <mxCell id="7Cxw7odDGHsC5qwyH94--481" style="edgeStyle=orthogonalEdgeStyle;rounded=0;orthogonalLoop=1;jettySize=auto;html=1;entryX=1;entryY=0.5;entryDx=0;entryDy=0;exitX=0.5;exitY=0;exitDx=0;exitDy=0;" edge="1" parent="1" source="bYl-1Xse578YIiAx0MEK-13" target="7Cxw7odDGHsC5qwyH94--475">
          <mxGeometry relative="1" as="geometry">
            <mxPoint x="3300" y="1160" as="targetPoint" />
            <Array as="points">
              <mxPoint x="4225" y="1030" />
              <mxPoint x="4225" y="1140" />
            </Array>
          </mxGeometry>
        </mxCell>
        <mxCell id="bYl-1Xse578YIiAx0MEK-14" value="" style="edgeStyle=none;curved=1;rounded=0;orthogonalLoop=1;jettySize=auto;html=1;fontSize=12;startSize=8;endSize=8;" edge="1" parent="1" source="7Cxw7odDGHsC5qwyH94--446" target="bYl-1Xse578YIiAx0MEK-13">
          <mxGeometry relative="1" as="geometry" />
        </mxCell>
        <mxCell id="7Cxw7odDGHsC5qwyH94--446" value="สามารถเลือกสินค้าได้" style="shape=parallelogram;perimeter=parallelogramPerimeter;whiteSpace=wrap;html=1;fixedSize=1;" vertex="1" parent="1">
          <mxGeometry x="4147" y="862.5" width="156" height="60" as="geometry" />
        </mxCell>
        <mxCell id="7Cxw7odDGHsC5qwyH94--472" style="edgeStyle=orthogonalEdgeStyle;rounded=0;orthogonalLoop=1;jettySize=auto;html=1;entryX=1;entryY=0.5;entryDx=0;entryDy=0;strokeColor=#CC0000;" edge="1" parent="1" source="7Cxw7odDGHsC5qwyH94--447" target="7Cxw7odDGHsC5qwyH94--465">
          <mxGeometry relative="1" as="geometry">
            <mxPoint x="2410" y="1110" as="targetPoint" />
            <Array as="points">
              <mxPoint x="4038" y="1090" />
            </Array>
          </mxGeometry>
        </mxCell>
        <mxCell id="7Cxw7odDGHsC5qwyH94--447" value="สิ้นค้า(ชิ้นนั้น)หมด" style="shape=parallelogram;perimeter=parallelogramPerimeter;whiteSpace=wrap;html=1;fixedSize=1;" vertex="1" parent="1">
          <mxGeometry x="3960" y="727.5" width="156" height="60" as="geometry" />
        </mxCell>
        <mxCell id="7Cxw7odDGHsC5qwyH94--463" value="&lt;font face=&quot;Sarabun&quot;&gt;สิ้นสุด&lt;/font&gt;" style="ellipse;whiteSpace=wrap;html=1;" vertex="1" parent="1">
          <mxGeometry x="2975" y="1330" width="130" height="30" as="geometry" />
        </mxCell>
        <mxCell id="bYl-1Xse578YIiAx0MEK-16" value="" style="edgeStyle=none;curved=1;rounded=0;orthogonalLoop=1;jettySize=auto;html=1;fontSize=12;startSize=8;endSize=8;" edge="1" parent="1" source="7Cxw7odDGHsC5qwyH94--465" target="bYl-1Xse578YIiAx0MEK-15">
          <mxGeometry relative="1" as="geometry" />
        </mxCell>
        <mxCell id="7Cxw7odDGHsC5qwyH94--465" value="" style="ellipse;whiteSpace=wrap;html=1;aspect=fixed;" vertex="1" parent="1">
          <mxGeometry x="1778" y="1080" width="20" height="20" as="geometry" />
        </mxCell>
        <mxCell id="7Cxw7odDGHsC5qwyH94--485" value="" style="edgeStyle=orthogonalEdgeStyle;rounded=0;orthogonalLoop=1;jettySize=auto;html=1;" edge="1" parent="1" source="7Cxw7odDGHsC5qwyH94--473" target="7Cxw7odDGHsC5qwyH94--482">
          <mxGeometry relative="1" as="geometry" />
        </mxCell>
        <mxCell id="7Cxw7odDGHsC5qwyH94--473" value="แสดงสินค้าที่มีอยู่" style="shape=parallelogram;perimeter=parallelogramPerimeter;whiteSpace=wrap;html=1;fixedSize=1;" vertex="1" parent="1">
          <mxGeometry x="2980" y="1184.5" width="120" height="60" as="geometry" />
        </mxCell>
        <mxCell id="7Cxw7odDGHsC5qwyH94--483" style="edgeStyle=orthogonalEdgeStyle;rounded=0;orthogonalLoop=1;jettySize=auto;html=1;entryX=0.5;entryY=0;entryDx=0;entryDy=0;" edge="1" parent="1" source="7Cxw7odDGHsC5qwyH94--475" target="7Cxw7odDGHsC5qwyH94--473">
          <mxGeometry relative="1" as="geometry" />
        </mxCell>
        <mxCell id="7Cxw7odDGHsC5qwyH94--475" value="" style="ellipse;whiteSpace=wrap;html=1;aspect=fixed;" vertex="1" parent="1">
          <mxGeometry x="3030" y="1130" width="20" height="20" as="geometry" />
        </mxCell>
        <mxCell id="7Cxw7odDGHsC5qwyH94--486" value="" style="edgeStyle=orthogonalEdgeStyle;rounded=0;orthogonalLoop=1;jettySize=auto;html=1;" edge="1" parent="1" source="7Cxw7odDGHsC5qwyH94--482" target="7Cxw7odDGHsC5qwyH94--463">
          <mxGeometry relative="1" as="geometry" />
        </mxCell>
        <mxCell id="7Cxw7odDGHsC5qwyH94--482" value="" style="ellipse;whiteSpace=wrap;html=1;aspect=fixed;" vertex="1" parent="1">
          <mxGeometry x="3030" y="1280" width="20" height="20" as="geometry" />
        </mxCell>
        <mxCell id="bYl-1Xse578YIiAx0MEK-1" value="ถ้าเลือกสินค้าไห้&lt;div&gt;A1 = -1&lt;/div&gt;" style="rounded=0;whiteSpace=wrap;html=1;direction=west;" vertex="1" parent="1">
          <mxGeometry x="1935" y="980" width="120" height="60" as="geometry" />
        </mxCell>
        <mxCell id="bYl-1Xse578YIiAx0MEK-3" value="ถ้าเลือกสินค้าไห้&lt;div&gt;A2 = -1&lt;/div&gt;" style="rounded=0;whiteSpace=wrap;html=1;direction=west;" vertex="1" parent="1">
          <mxGeometry x="2295" y="980" width="120" height="60" as="geometry" />
        </mxCell>
        <mxCell id="bYl-1Xse578YIiAx0MEK-5" value="ถ้าเลือกสินค้าไห้&lt;div&gt;A3 = -1&lt;/div&gt;" style="rounded=0;whiteSpace=wrap;html=1;direction=west;" vertex="1" parent="1">
          <mxGeometry x="2660" y="980" width="120" height="60" as="geometry" />
        </mxCell>
        <mxCell id="bYl-1Xse578YIiAx0MEK-7" value="ถ้าเลือกสินค้าไห้&lt;div&gt;A1 = -1&lt;/div&gt;" style="rounded=0;whiteSpace=wrap;html=1;direction=west;" vertex="1" parent="1">
          <mxGeometry x="3015" y="980" width="120" height="60" as="geometry" />
        </mxCell>
        <mxCell id="bYl-1Xse578YIiAx0MEK-9" value="ถ้าเลือกสินค้าไห้&lt;div&gt;A1 = -1&lt;/div&gt;" style="rounded=0;whiteSpace=wrap;html=1;direction=west;" vertex="1" parent="1">
          <mxGeometry x="3390" y="980" width="120" height="60" as="geometry" />
        </mxCell>
        <mxCell id="bYl-1Xse578YIiAx0MEK-11" value="ถ้าเลือกสินค้าไห้&lt;div&gt;A1 = -1&lt;/div&gt;" style="rounded=0;whiteSpace=wrap;html=1;direction=west;" vertex="1" parent="1">
          <mxGeometry x="3757" y="980" width="120" height="60" as="geometry" />
        </mxCell>
        <mxCell id="bYl-1Xse578YIiAx0MEK-13" value="ถ้าเลือกสินค้าไห้&lt;div&gt;A1 = -1&lt;/div&gt;" style="rounded=0;whiteSpace=wrap;html=1;direction=west;" vertex="1" parent="1">
          <mxGeometry x="4165" y="980" width="120" height="60" as="geometry" />
        </mxCell>
        <mxCell id="bYl-1Xse578YIiAx0MEK-18" value="" style="edgeStyle=none;curved=1;rounded=0;orthogonalLoop=1;jettySize=auto;html=1;fontSize=12;startSize=8;endSize=8;" edge="1" parent="1" source="bYl-1Xse578YIiAx0MEK-15" target="bYl-1Xse578YIiAx0MEK-17">
          <mxGeometry relative="1" as="geometry" />
        </mxCell>
        <mxCell id="bYl-1Xse578YIiAx0MEK-15" value="หากสินค้า &amp;lt; 0" style="rounded=0;whiteSpace=wrap;html=1;direction=west;" vertex="1" parent="1">
          <mxGeometry x="1728" y="1260" width="120" height="60" as="geometry" />
        </mxCell>
        <mxCell id="bYl-1Xse578YIiAx0MEK-19" style="edgeStyle=none;curved=1;rounded=0;orthogonalLoop=1;jettySize=auto;html=1;entryX=0;entryY=0.5;entryDx=0;entryDy=0;fontSize=12;startSize=8;endSize=8;" edge="1" parent="1" source="bYl-1Xse578YIiAx0MEK-17" target="7Cxw7odDGHsC5qwyH94--482">
          <mxGeometry relative="1" as="geometry" />
        </mxCell>
        <mxCell id="bYl-1Xse578YIiAx0MEK-17" value="ไห้แจ้งไปยังผู้ให้บริการ&lt;div&gt;&quot;สิ้นค้าในตู้หมด&quot;&lt;/div&gt;" style="rounded=0;whiteSpace=wrap;html=1;direction=west;" vertex="1" parent="1">
          <mxGeometry x="1980" y="1260" width="120" height="60" as="geometry" />
        </mxCell>
      </root>
    </mxGraphModel>
  </diagram>
</mxfile>
